<svg id="visual" viewBox="0 0 1980 1080" width="1980" height="1080" xmlns="http://www.w3.org/2000/svg" xmlns:xlink="http://www.w3.org/1999/xlink" version="1.1"><g stroke-width="2" stroke-linejoin="bevel"><path d="M936.8 526L913.8 647L1044.2 554Z" fill="#c0c0c0" stroke="#FFFFFF"></path><path d="M913.8 647L1054.2 679L1044.2 554Z" fill="#ffffff" stroke="#FFFFFF"></path><path d="M913.8 777L1048.2 772L1054.2 679Z" fill="#717171" stroke="#FFFFFF"></path><path d="M913.8 647L913.8 777L1054.2 679Z" fill="#989898" stroke="#FFFFFF"></path><path d="M936.8 526L790.5 542L913.8 647Z" fill="#717171" stroke="#FFFFFF"></path><path d="M913.8 647L744.5 641L913.8 777Z" fill="#5f5f5f" stroke="#FFFFFF"></path><path d="M1044.2 554L939.8 393L936.8 526Z" fill="#c0c0c0" stroke="#FFFFFF"></path><path d="M936.8 526L799.5 416L790.5 542Z" fill="#989898" stroke="#FFFFFF"></path><path d="M1048.2 772L1181.5 643L1054.2 679Z" fill="#acacac" stroke="#FFFFFF"></path><path d="M1054.2 679L1181.5 643L1044.2 554Z" fill="#5f5f5f" stroke="#FFFFFF"></path><path d="M1044.2 554L1067.2 367L939.8 393Z" fill="#717171" stroke="#FFFFFF"></path><path d="M1181.5 643L1192.5 534L1044.2 554Z" fill="#989898" stroke="#FFFFFF"></path><path d="M790.5 542L744.5 641L913.8 647Z" fill="#c0c0c0" stroke="#FFFFFF"></path><path d="M1201.5 438L1067.2 367L1044.2 554Z" fill="#eaeaea" stroke="#FFFFFF"></path><path d="M913.8 238L799.5 416L939.8 393Z" fill="#3c3c3c" stroke="#FFFFFF"></path><path d="M939.8 393L799.5 416L936.8 526Z" fill="#eaeaea" stroke="#FFFFFF"></path><path d="M790.5 542L618.2 508L744.5 641Z" fill="#d5d5d5" stroke="#FFFFFF"></path><path d="M1192.5 534L1201.5 438L1044.2 554Z" fill="#717171" stroke="#FFFFFF"></path><path d="M744.5 641L741.5 804L913.8 777Z" fill="#717171" stroke="#FFFFFF"></path><path d="M1065.2 959L1230.5 801L1048.2 772Z" fill="#848484" stroke="#FFFFFF"></path><path d="M1196.5 266L1068.2 290L1067.2 367Z" fill="#717171" stroke="#FFFFFF"></path><path d="M1067.2 367L1068.2 290L939.8 393Z" fill="#848484" stroke="#FFFFFF"></path><path d="M909.8 941L1048.2 772L913.8 777Z" fill="#ffffff" stroke="#FFFFFF"></path><path d="M1048.2 772L1230.5 801L1181.5 643Z" fill="#848484" stroke="#FFFFFF"></path><path d="M1181.5 643L1357.8 534L1192.5 534Z" fill="#acacac" stroke="#FFFFFF"></path><path d="M1192.5 534L1357.8 534L1201.5 438Z" fill="#848484" stroke="#FFFFFF"></path><path d="M741.5 804L909.8 941L913.8 777Z" fill="#acacac" stroke="#FFFFFF"></path><path d="M1068.2 290L913.8 238L939.8 393Z" fill="#acacac" stroke="#FFFFFF"></path><path d="M632.2 381L618.2 508L799.5 416Z" fill="#3c3c3c" stroke="#FFFFFF"></path><path d="M799.5 416L618.2 508L790.5 542Z" fill="#989898" stroke="#FFFFFF"></path><path d="M744.5 641L611.2 797L741.5 804Z" fill="#989898" stroke="#FFFFFF"></path><path d="M909.8 941L1065.2 959L1048.2 772Z" fill="#989898" stroke="#FFFFFF"></path><path d="M618.2 508L601.2 639L744.5 641Z" fill="#c0c0c0" stroke="#FFFFFF"></path><path d="M1378.8 675L1357.8 534L1181.5 643Z" fill="#4d4d4d" stroke="#FFFFFF"></path><path d="M1201.5 438L1196.5 266L1067.2 367Z" fill="#4d4d4d" stroke="#FFFFFF"></path><path d="M1346.8 386L1196.5 266L1201.5 438Z" fill="#ffffff" stroke="#FFFFFF"></path><path d="M1040.2 137L942.8 153L913.8 238Z" fill="#4d4d4d" stroke="#FFFFFF"></path><path d="M640.2 955L769.5 945L741.5 804Z" fill="#5f5f5f" stroke="#FFFFFF"></path><path d="M741.5 804L769.5 945L909.8 941Z" fill="#4d4d4d" stroke="#FFFFFF"></path><path d="M909.8 941L1066.2 1080L1065.2 959Z" fill="#989898" stroke="#FFFFFF"></path><path d="M774.5 233L632.2 381L799.5 416Z" fill="#3c3c3c" stroke="#FFFFFF"></path><path d="M618.2 508L484.9 554L601.2 639Z" fill="#5f5f5f" stroke="#FFFFFF"></path><path d="M1390.8 778L1378.8 675L1230.5 801Z" fill="#3c3c3c" stroke="#FFFFFF"></path><path d="M1230.5 801L1378.8 675L1181.5 643Z" fill="#848484" stroke="#FFFFFF"></path><path d="M1065.2 959L1248.5 907L1230.5 801Z" fill="#c0c0c0" stroke="#FFFFFF"></path><path d="M913.8 238L774.5 233L799.5 416Z" fill="#ffffff" stroke="#FFFFFF"></path><path d="M601.2 639L611.2 797L744.5 641Z" fill="#989898" stroke="#FFFFFF"></path><path d="M1357.8 534L1346.8 386L1201.5 438Z" fill="#d5d5d5" stroke="#FFFFFF"></path><path d="M1389.8 306L1346.8 386L1493.1 440Z" fill="#d5d5d5" stroke="#FFFFFF"></path><path d="M1040.2 137L913.8 238L1068.2 290Z" fill="#3c3c3c" stroke="#FFFFFF"></path><path d="M913.8 238L942.8 153L774.5 233Z" fill="#717171" stroke="#FFFFFF"></path><path d="M1248.5 907L1390.8 778L1230.5 801Z" fill="#5f5f5f" stroke="#FFFFFF"></path><path d="M1493.1 440L1346.8 386L1357.8 534Z" fill="#acacac" stroke="#FFFFFF"></path><path d="M1238.5 103L1040.2 137L1196.5 266Z" fill="#5f5f5f" stroke="#FFFFFF"></path><path d="M1196.5 266L1040.2 137L1068.2 290Z" fill="#848484" stroke="#FFFFFF"></path><path d="M611.2 797L640.2 955L741.5 804Z" fill="#c0c0c0" stroke="#FFFFFF"></path><path d="M878.8 1080L1066.2 1080L909.8 941Z" fill="#717171" stroke="#FFFFFF"></path><path d="M878.8 1080L909.8 941L769.5 945Z" fill="#848484" stroke="#FFFFFF"></path><path d="M1065.2 959L1181.5 1080L1248.5 907Z" fill="#3c3c3c" stroke="#FFFFFF"></path><path d="M1248.5 907L1391.8 979L1390.8 778Z" fill="#d5d5d5" stroke="#FFFFFF"></path><path d="M425.9 444L484.9 554L618.2 508Z" fill="#717171" stroke="#FFFFFF"></path><path d="M601.2 639L438.9 675L611.2 797Z" fill="#c0c0c0" stroke="#FFFFFF"></path><path d="M611.2 797L464.9 974L640.2 955Z" fill="#acacac" stroke="#FFFFFF"></path><path d="M743.5 1080L878.8 1080L769.5 945Z" fill="#3c3c3c" stroke="#FFFFFF"></path><path d="M774.5 233L615.2 247L632.2 381Z" fill="#989898" stroke="#FFFFFF"></path><path d="M632.2 381L425.9 444L618.2 508Z" fill="#d5d5d5" stroke="#FFFFFF"></path><path d="M639.2 168L615.2 247L774.5 233Z" fill="#acacac" stroke="#FFFFFF"></path><path d="M1493.1 440L1357.8 534L1559.1 529Z" fill="#3c3c3c" stroke="#FFFFFF"></path><path d="M1346.8 386L1389.8 306L1196.5 266Z" fill="#c0c0c0" stroke="#FFFFFF"></path><path d="M1066.2 1080L1181.5 1080L1065.2 959Z" fill="#ffffff" stroke="#FFFFFF"></path><path d="M640.2 955L743.5 1080L769.5 945Z" fill="#5f5f5f" stroke="#FFFFFF"></path><path d="M1532.1 670L1357.8 534L1378.8 675Z" fill="#848484" stroke="#FFFFFF"></path><path d="M484.9 554L438.9 675L601.2 639Z" fill="#4d4d4d" stroke="#FFFFFF"></path><path d="M731.5 98L639.2 168L774.5 233Z" fill="#d5d5d5" stroke="#FFFFFF"></path><path d="M435.9 269L425.9 444L632.2 381Z" fill="#eaeaea" stroke="#FFFFFF"></path><path d="M731.5 98L774.5 233L942.8 153Z" fill="#717171" stroke="#FFFFFF"></path><path d="M910.8 0L731.5 98L942.8 153Z" fill="#eaeaea" stroke="#FFFFFF"></path><path d="M1358.8 157L1196.5 266L1389.8 306Z" fill="#989898" stroke="#FFFFFF"></path><path d="M1358.8 157L1238.5 103L1196.5 266Z" fill="#c0c0c0" stroke="#FFFFFF"></path><path d="M1040.2 137L1035.2 0L942.8 153Z" fill="#ffffff" stroke="#FFFFFF"></path><path d="M1516.1 790L1532.1 670L1390.8 778Z" fill="#acacac" stroke="#FFFFFF"></path><path d="M1390.8 778L1532.1 670L1378.8 675Z" fill="#d5d5d5" stroke="#FFFFFF"></path><path d="M1181.5 1080L1391.8 979L1248.5 907Z" fill="#c0c0c0" stroke="#FFFFFF"></path><path d="M435.9 269L632.2 381L615.2 247Z" fill="#4d4d4d" stroke="#FFFFFF"></path><path d="M484.9 554L338.6 536L438.9 675Z" fill="#c0c0c0" stroke="#FFFFFF"></path><path d="M1488.1 923L1516.1 790L1390.8 778Z" fill="#717171" stroke="#FFFFFF"></path><path d="M287.6 667L423.9 777L438.9 675Z" fill="#acacac" stroke="#FFFFFF"></path><path d="M438.9 675L423.9 777L611.2 797Z" fill="#4d4d4d" stroke="#FFFFFF"></path><path d="M640.2 955L639.2 1080L743.5 1080Z" fill="#4d4d4d" stroke="#FFFFFF"></path><path d="M1504.1 168L1358.8 157L1389.8 306Z" fill="#acacac" stroke="#FFFFFF"></path><path d="M1532.1 670L1559.1 529L1357.8 534Z" fill="#4d4d4d" stroke="#FFFFFF"></path><path d="M1493.1 440L1558.1 280L1389.8 306Z" fill="#717171" stroke="#FFFFFF"></path><path d="M1636.4 504L1559.1 529L1646.4 646Z" fill="#d5d5d5" stroke="#FFFFFF"></path><path d="M464.9 974L639.2 1080L640.2 955Z" fill="#848484" stroke="#FFFFFF"></path><path d="M1178.5 0L1040.2 137L1238.5 103Z" fill="#4d4d4d" stroke="#FFFFFF"></path><path d="M1178.5 0L1035.2 0L1040.2 137Z" fill="#c0c0c0" stroke="#FFFFFF"></path><path d="M1035.2 0L910.8 0L942.8 153Z" fill="#848484" stroke="#FFFFFF"></path><path d="M1391.8 979L1488.1 923L1390.8 778Z" fill="#ffffff" stroke="#FFFFFF"></path><path d="M1409.8 0L1178.5 0L1238.5 103Z" fill="#5f5f5f" stroke="#FFFFFF"></path><path d="M437.9 121L615.2 247L639.2 168Z" fill="#4d4d4d" stroke="#FFFFFF"></path><path d="M437.9 121L435.9 269L615.2 247Z" fill="#acacac" stroke="#FFFFFF"></path><path d="M423.9 777L464.9 974L611.2 797Z" fill="#848484" stroke="#FFFFFF"></path><path d="M910.8 0L752.5 0L731.5 98Z" fill="#989898" stroke="#FFFFFF"></path><path d="M731.5 98L624.2 0L639.2 168Z" fill="#989898" stroke="#FFFFFF"></path><path d="M1181.5 1080L1390.8 1080L1391.8 979Z" fill="#d5d5d5" stroke="#FFFFFF"></path><path d="M1391.8 979L1529.1 1080L1488.1 923Z" fill="#c0c0c0" stroke="#FFFFFF"></path><path d="M264.6 369L338.6 536L425.9 444Z" fill="#989898" stroke="#FFFFFF"></path><path d="M425.9 444L338.6 536L484.9 554Z" fill="#717171" stroke="#FFFFFF"></path><path d="M423.9 777L320.6 836L464.9 974Z" fill="#eaeaea" stroke="#FFFFFF"></path><path d="M1673.4 416L1558.1 280L1493.1 440Z" fill="#acacac" stroke="#FFFFFF"></path><path d="M1358.8 157L1409.8 0L1238.5 103Z" fill="#848484" stroke="#FFFFFF"></path><path d="M1646.4 646L1559.1 529L1532.1 670Z" fill="#d5d5d5" stroke="#FFFFFF"></path><path d="M1559.1 529L1636.4 504L1493.1 440Z" fill="#c0c0c0" stroke="#FFFFFF"></path><path d="M1646.4 646L1532.1 670L1635.4 835Z" fill="#989898" stroke="#FFFFFF"></path><path d="M1635.4 835L1532.1 670L1516.1 790Z" fill="#eaeaea" stroke="#FFFFFF"></path><path d="M1558.1 280L1504.1 168L1389.8 306Z" fill="#989898" stroke="#FFFFFF"></path><path d="M162.3 522L287.6 667L338.6 536Z" fill="#eaeaea" stroke="#FFFFFF"></path><path d="M338.6 536L287.6 667L438.9 675Z" fill="#c0c0c0" stroke="#FFFFFF"></path><path d="M752.5 0L624.2 0L731.5 98Z" fill="#acacac" stroke="#FFFFFF"></path><path d="M287.6 667L320.6 836L423.9 777Z" fill="#c0c0c0" stroke="#FFFFFF"></path><path d="M287.6 1080L469.9 1080L464.9 974Z" fill="#3c3c3c" stroke="#FFFFFF"></path><path d="M464.9 974L469.9 1080L639.2 1080Z" fill="#c0c0c0" stroke="#FFFFFF"></path><path d="M1488.1 923L1635.4 835L1516.1 790Z" fill="#848484" stroke="#FFFFFF"></path><path d="M1663.4 906L1635.4 835L1488.1 923Z" fill="#d5d5d5" stroke="#FFFFFF"></path><path d="M624.2 0L437.9 121L639.2 168Z" fill="#d5d5d5" stroke="#FFFFFF"></path><path d="M435.9 269L300.6 287L425.9 444Z" fill="#5f5f5f" stroke="#FFFFFF"></path><path d="M1805.7 543L1673.4 416L1636.4 504Z" fill="#acacac" stroke="#FFFFFF"></path><path d="M1636.4 504L1673.4 416L1493.1 440Z" fill="#989898" stroke="#FFFFFF"></path><path d="M1558.1 280L1649.4 246L1504.1 168Z" fill="#4d4d4d" stroke="#FFFFFF"></path><path d="M1805.7 543L1636.4 504L1646.4 646Z" fill="#717171" stroke="#FFFFFF"></path><path d="M1390.8 1080L1529.1 1080L1391.8 979Z" fill="#d5d5d5" stroke="#FFFFFF"></path><path d="M1507.1 0L1409.8 0L1504.1 168Z" fill="#4d4d4d" stroke="#FFFFFF"></path><path d="M1504.1 168L1409.8 0L1358.8 157Z" fill="#c0c0c0" stroke="#FFFFFF"></path><path d="M298.6 149L300.6 287L435.9 269Z" fill="#848484" stroke="#FFFFFF"></path><path d="M300.6 287L264.6 369L425.9 444Z" fill="#717171" stroke="#FFFFFF"></path><path d="M1529.1 1080L1663.4 906L1488.1 923Z" fill="#5f5f5f" stroke="#FFFFFF"></path><path d="M1809.7 676L1805.7 543L1646.4 646Z" fill="#848484" stroke="#FFFFFF"></path><path d="M1673.4 416L1649.4 246L1558.1 280Z" fill="#717171" stroke="#FFFFFF"></path><path d="M320.6 836L298.6 952L464.9 974Z" fill="#848484" stroke="#FFFFFF"></path><path d="M118.3 936L298.6 952L320.6 836Z" fill="#717171" stroke="#FFFFFF"></path><path d="M141.3 788L320.6 836L287.6 667Z" fill="#ffffff" stroke="#FFFFFF"></path><path d="M624.2 0L472.9 0L437.9 121Z" fill="#ffffff" stroke="#FFFFFF"></path><path d="M437.9 121L298.6 149L435.9 269Z" fill="#c0c0c0" stroke="#FFFFFF"></path><path d="M1638.4 0L1507.1 0L1504.1 168Z" fill="#5f5f5f" stroke="#FFFFFF"></path><path d="M281.6 0L298.6 149L437.9 121Z" fill="#989898" stroke="#FFFFFF"></path><path d="M300.6 287L185.3 278L264.6 369Z" fill="#848484" stroke="#FFFFFF"></path><path d="M127.3 400L162.3 522L264.6 369Z" fill="#4d4d4d" stroke="#FFFFFF"></path><path d="M264.6 369L162.3 522L338.6 536Z" fill="#3c3c3c" stroke="#FFFFFF"></path><path d="M162.3 522L159.3 653L287.6 667Z" fill="#989898" stroke="#FFFFFF"></path><path d="M1529.1 1080L1645.4 1080L1663.4 906Z" fill="#c0c0c0" stroke="#FFFFFF"></path><path d="M1809.7 676L1646.4 646L1635.4 835Z" fill="#3c3c3c" stroke="#FFFFFF"></path><path d="M1673.4 416L1808.7 414L1649.4 246Z" fill="#5f5f5f" stroke="#FFFFFF"></path><path d="M1809.7 676L1635.4 835L1831.7 843Z" fill="#eaeaea" stroke="#FFFFFF"></path><path d="M1831.7 843L1635.4 835L1663.4 906Z" fill="#717171" stroke="#FFFFFF"></path><path d="M145.3 1080L287.6 1080L298.6 952Z" fill="#ffffff" stroke="#FFFFFF"></path><path d="M298.6 952L287.6 1080L464.9 974Z" fill="#717171" stroke="#FFFFFF"></path><path d="M298.6 149L185.3 278L300.6 287Z" fill="#c0c0c0" stroke="#FFFFFF"></path><path d="M1866.7 237L1808.7 414L1980 442Z" fill="#acacac" stroke="#FFFFFF"></path><path d="M1805.7 543L1808.7 414L1673.4 416Z" fill="#4d4d4d" stroke="#FFFFFF"></path><path d="M1649.4 246L1712.4 148L1504.1 168Z" fill="#989898" stroke="#FFFFFF"></path><path d="M0 647L141.3 788L159.3 653Z" fill="#eaeaea" stroke="#FFFFFF"></path><path d="M159.3 653L141.3 788L287.6 667Z" fill="#3c3c3c" stroke="#FFFFFF"></path><path d="M1866.7 237L1712.4 148L1649.4 246Z" fill="#c0c0c0" stroke="#FFFFFF"></path><path d="M185.3 278L127.3 400L264.6 369Z" fill="#989898" stroke="#FFFFFF"></path><path d="M162.3 522L0 558L159.3 653Z" fill="#eaeaea" stroke="#FFFFFF"></path><path d="M1866.7 948L1831.7 843L1663.4 906Z" fill="#989898" stroke="#FFFFFF"></path><path d="M1980 442L1808.7 414L1805.7 543Z" fill="#5f5f5f" stroke="#FFFFFF"></path><path d="M1712.4 148L1638.4 0L1504.1 168Z" fill="#d5d5d5" stroke="#FFFFFF"></path><path d="M472.9 0L281.6 0L437.9 121Z" fill="#4d4d4d" stroke="#FFFFFF"></path><path d="M298.6 149L144.3 163L185.3 278Z" fill="#c0c0c0" stroke="#FFFFFF"></path><path d="M0 304L0 421L127.3 400Z" fill="#c0c0c0" stroke="#FFFFFF"></path><path d="M0 843L118.3 936L141.3 788Z" fill="#ffffff" stroke="#FFFFFF"></path><path d="M141.3 788L118.3 936L320.6 836Z" fill="#5f5f5f" stroke="#FFFFFF"></path><path d="M281.6 0L144.3 163L298.6 149Z" fill="#acacac" stroke="#FFFFFF"></path><path d="M1844.7 1080L1866.7 948L1663.4 906Z" fill="#848484" stroke="#FFFFFF"></path><path d="M1980 655L1980 572L1809.7 676Z" fill="#4d4d4d" stroke="#FFFFFF"></path><path d="M1980 572L1805.7 543L1809.7 676Z" fill="#989898" stroke="#FFFFFF"></path><path d="M1808.7 414L1866.7 237L1649.4 246Z" fill="#848484" stroke="#FFFFFF"></path><path d="M1712.4 148L1851.7 0L1638.4 0Z" fill="#acacac" stroke="#FFFFFF"></path><path d="M118.3 936L145.3 1080L298.6 952Z" fill="#ffffff" stroke="#FFFFFF"></path><path d="M0 421L162.3 522L127.3 400Z" fill="#3c3c3c" stroke="#FFFFFF"></path><path d="M0 421L0 558L162.3 522Z" fill="#5f5f5f" stroke="#FFFFFF"></path><path d="M118.3 936L0 968L145.3 1080Z" fill="#c0c0c0" stroke="#FFFFFF"></path><path d="M0 558L0 647L159.3 653Z" fill="#d5d5d5" stroke="#FFFFFF"></path><path d="M0 304L127.3 400L185.3 278Z" fill="#ffffff" stroke="#FFFFFF"></path><path d="M1645.4 1080L1844.7 1080L1663.4 906Z" fill="#848484" stroke="#FFFFFF"></path><path d="M1980 655L1809.7 676L1980 836Z" fill="#eaeaea" stroke="#FFFFFF"></path><path d="M1809.7 676L1831.7 843L1980 836Z" fill="#717171" stroke="#FFFFFF"></path><path d="M1980 836L1831.7 843L1866.7 948Z" fill="#ffffff" stroke="#FFFFFF"></path><path d="M1980 167L1856.7 110L1866.7 237Z" fill="#c0c0c0" stroke="#FFFFFF"></path><path d="M1866.7 237L1856.7 110L1712.4 148Z" fill="#848484" stroke="#FFFFFF"></path><path d="M0 647L0 843L141.3 788Z" fill="#ffffff" stroke="#FFFFFF"></path><path d="M1980 572L1980 442L1805.7 543Z" fill="#3c3c3c" stroke="#FFFFFF"></path><path d="M144.3 163L0 304L185.3 278Z" fill="#4d4d4d" stroke="#FFFFFF"></path><path d="M0 151L0 304L144.3 163Z" fill="#717171" stroke="#FFFFFF"></path><path d="M281.6 0L142.3 0L144.3 163Z" fill="#ffffff" stroke="#FFFFFF"></path><path d="M1980 923L1980 836L1866.7 948Z" fill="#989898" stroke="#FFFFFF"></path><path d="M0 843L0 968L118.3 936Z" fill="#ffffff" stroke="#FFFFFF"></path><path d="M1980 1080L1980 923L1866.7 948Z" fill="#acacac" stroke="#FFFFFF"></path><path d="M1980 0L1851.7 0L1856.7 110Z" fill="#ffffff" stroke="#FFFFFF"></path><path d="M1856.7 110L1851.7 0L1712.4 148Z" fill="#5f5f5f" stroke="#FFFFFF"></path><path d="M1980 442L1980 248L1866.7 237Z" fill="#4d4d4d" stroke="#FFFFFF"></path><path d="M142.3 0L0 151L144.3 163Z" fill="#4d4d4d" stroke="#FFFFFF"></path><path d="M0 968L0 1080L145.3 1080Z" fill="#3c3c3c" stroke="#FFFFFF"></path><path d="M1980 248L1980 167L1866.7 237Z" fill="#d5d5d5" stroke="#FFFFFF"></path><path d="M1844.7 1080L1980 1080L1866.7 948Z" fill="#d5d5d5" stroke="#FFFFFF"></path><path d="M142.3 0L0 0L0 151Z" fill="#5f5f5f" stroke="#FFFFFF"></path><path d="M1980 167L1980 0L1856.7 110Z" fill="#989898" stroke="#FFFFFF"></path></g></svg>