<svg id="visual" viewBox="0 0 450 900" width="450" height="900" xmlns="http://www.w3.org/2000/svg" xmlns:xlink="http://www.w3.org/1999/xlink" version="1.1"><g stroke-width="2" stroke-linejoin="bevel"><path d="M207.7 445L216.3 469.6L246.7 455.6Z" fill="#212121" stroke="#000000"></path><path d="M260.3 463L258.3 454.4L246.7 455.6Z" fill="#262626" stroke="#000000"></path><path d="M246.7 455.6L241.7 414.4L207.7 445Z" fill="#3c3c3c" stroke="#000000"></path><path d="M263.3 494.2L260.3 463L246.7 455.6Z" fill="#262626" stroke="#000000"></path><path d="M251.9 416L241.7 414.4L246.7 455.6Z" fill="#363636" stroke="#000000"></path><path d="M291.9 442.4L251.9 416L258.3 454.4Z" fill="#313131" stroke="#000000"></path><path d="M258.3 454.4L251.9 416L246.7 455.6Z" fill="#090909" stroke="#000000"></path><path d="M241.7 414.4L177.1 435.4L207.7 445Z" fill="#3c3c3c" stroke="#000000"></path><path d="M207.7 445L162.1 460L216.3 469.6Z" fill="#212121" stroke="#000000"></path><path d="M216.3 469.6L263.3 494.2L246.7 455.6Z" fill="#3c3c3c" stroke="#000000"></path><path d="M251.9 416L245.7 395.8L241.7 414.4Z" fill="#171717" stroke="#000000"></path><path d="M241.7 414.4L245.7 395.8L177.1 435.4Z" fill="#2c2c2c" stroke="#000000"></path><path d="M177.1 435.4L165.5 450L207.7 445Z" fill="#2c2c2c" stroke="#000000"></path><path d="M216.3 469.6L239.9 530.2L263.3 494.2Z" fill="#363636" stroke="#000000"></path><path d="M263.3 494.2L289.5 448.6L260.3 463Z" fill="#090909" stroke="#000000"></path><path d="M260.3 463L289.5 448.6L258.3 454.4Z" fill="#3c3c3c" stroke="#000000"></path><path d="M251.9 416L300.5 400.4L245.7 395.8Z" fill="#3c3c3c" stroke="#000000"></path><path d="M165.5 450L162.1 460L207.7 445Z" fill="#262626" stroke="#000000"></path><path d="M289.5 448.6L291.9 442.4L258.3 454.4Z" fill="#313131" stroke="#000000"></path><path d="M268.3 363.2L245.9 380.2L245.7 395.8Z" fill="#000000" stroke="#000000"></path><path d="M245.7 395.8L167.5 355.8L177.1 435.4Z" fill="#363636" stroke="#000000"></path><path d="M148.5 510.2L210.7 527.2L216.3 469.6Z" fill="#262626" stroke="#000000"></path><path d="M210.7 527.2L239.9 530.2L216.3 469.6Z" fill="#000000" stroke="#000000"></path><path d="M177.1 435.4L147.1 450.6L165.5 450Z" fill="#2c2c2c" stroke="#000000"></path><path d="M165.5 450L147.1 450.6L162.1 460Z" fill="#111111" stroke="#000000"></path><path d="M162.1 460L148.5 510.2L216.3 469.6Z" fill="#1c1c1c" stroke="#000000"></path><path d="M121.5 402.4L147.1 450.6L177.1 435.4Z" fill="#171717" stroke="#000000"></path><path d="M239.9 530.2L278.9 516.6L263.3 494.2Z" fill="#363636" stroke="#000000"></path><path d="M331.5 486L332.2 477.6L289.5 448.6Z" fill="#090909" stroke="#000000"></path><path d="M289.5 448.6L332.2 477.6L291.9 442.4Z" fill="#212121" stroke="#000000"></path><path d="M336.2 390.4L300.5 400.4L350.8 411.4Z" fill="#090909" stroke="#000000"></path><path d="M291.9 442.4L300.5 400.4L251.9 416Z" fill="#111111" stroke="#000000"></path><path d="M239.9 530.2L277.9 528.8L278.9 516.6Z" fill="#3c3c3c" stroke="#000000"></path><path d="M331.5 486L289.5 448.6L263.3 494.2Z" fill="#1c1c1c" stroke="#000000"></path><path d="M126.8 462.6L148.5 510.2L162.1 460Z" fill="#111111" stroke="#000000"></path><path d="M300.5 400.4L268.3 363.2L245.7 395.8Z" fill="#000000" stroke="#000000"></path><path d="M110.8 425.4L126.8 462.6L147.1 450.6Z" fill="#2c2c2c" stroke="#000000"></path><path d="M148.5 510.2L194.1 546.8L210.7 527.2Z" fill="#313131" stroke="#000000"></path><path d="M210.7 527.2L194.1 546.8L239.9 530.2Z" fill="#000000" stroke="#000000"></path><path d="M239.9 530.2L274.5 578.8L277.9 528.8Z" fill="#090909" stroke="#000000"></path><path d="M167.5 355.8L245.7 395.8L245.9 380.2Z" fill="#363636" stroke="#000000"></path><path d="M147.1 450.6L126.8 462.6L162.1 460Z" fill="#313131" stroke="#000000"></path><path d="M268.3 363.2L225.3 344.8L245.9 380.2Z" fill="#111111" stroke="#000000"></path><path d="M312.5 353.8L270.9 353.8L268.3 363.2Z" fill="#212121" stroke="#000000"></path><path d="M268.3 363.2L270.9 353.8L225.3 344.8Z" fill="#363636" stroke="#000000"></path><path d="M331.5 486L263.3 494.2L278.9 516.6Z" fill="#363636" stroke="#000000"></path><path d="M356.8 527.2L331.5 486L278.9 516.6Z" fill="#2c2c2c" stroke="#000000"></path><path d="M225.3 344.8L167.5 355.8L245.9 380.2Z" fill="#171717" stroke="#000000"></path><path d="M343.5 489.2L339.2 481L331.5 486Z" fill="#2c2c2c" stroke="#000000"></path><path d="M331.5 486L339.2 481L332.2 477.6Z" fill="#1c1c1c" stroke="#000000"></path><path d="M350.8 411.4L300.5 400.4L291.9 442.4Z" fill="#2c2c2c" stroke="#000000"></path><path d="M150.1 361.8L121.5 402.4L177.1 435.4Z" fill="#2c2c2c" stroke="#000000"></path><path d="M107.8 476L135.5 525.8L148.5 510.2Z" fill="#2c2c2c" stroke="#000000"></path><path d="M148.5 510.2L166.1 555.2L194.1 546.8Z" fill="#090909" stroke="#000000"></path><path d="M167.5 355.8L150.1 361.8L177.1 435.4Z" fill="#262626" stroke="#000000"></path><path d="M121.5 402.4L110.8 425.4L147.1 450.6Z" fill="#3c3c3c" stroke="#000000"></path><path d="M126.8 462.6L107.8 476L148.5 510.2Z" fill="#313131" stroke="#000000"></path><path d="M135.5 525.8L166.1 555.2L148.5 510.2Z" fill="#111111" stroke="#000000"></path><path d="M251.3 585.8L274.5 578.8L239.9 530.2Z" fill="#3c3c3c" stroke="#000000"></path><path d="M104.5 450.6L107.8 476L126.8 462.6Z" fill="#171717" stroke="#000000"></path><path d="M110.8 425.4L104.5 450.6L126.8 462.6Z" fill="#111111" stroke="#000000"></path><path d="M168.5 322.5L159.1 350.2L167.5 355.8Z" fill="#262626" stroke="#000000"></path><path d="M167.5 355.8L159.1 350.2L150.1 361.8Z" fill="#000000" stroke="#000000"></path><path d="M356.8 527.2L343.5 489.2L331.5 486Z" fill="#212121" stroke="#000000"></path><path d="M350.8 411.4L291.9 442.4L332.2 477.6Z" fill="#2c2c2c" stroke="#000000"></path><path d="M350.8 411.4L332.2 477.6L339.2 481Z" fill="#313131" stroke="#000000"></path><path d="M300.5 400.4L312.5 353.8L268.3 363.2Z" fill="#363636" stroke="#000000"></path><path d="M132.8 552.8L151.1 557.5L135.5 525.8Z" fill="#3c3c3c" stroke="#000000"></path><path d="M135.5 525.8L151.1 557.5L166.1 555.2Z" fill="#2c2c2c" stroke="#000000"></path><path d="M336.2 390.4L312.5 353.8L300.5 400.4Z" fill="#262626" stroke="#000000"></path><path d="M270.9 353.8L250.9 322.5L225.3 344.8Z" fill="#171717" stroke="#000000"></path><path d="M402.4 459L350.8 411.4L339.2 481Z" fill="#000000" stroke="#000000"></path><path d="M318.5 326.2L312.2 346.5L338.2 328.2Z" fill="#171717" stroke="#000000"></path><path d="M264.9 315.9L250.9 322.5L270.9 353.8Z" fill="#212121" stroke="#000000"></path><path d="M225.3 344.8L168.5 322.5L167.5 355.8Z" fill="#212121" stroke="#000000"></path><path d="M411.4 390.8L353.2 404.8L420.4 432.4Z" fill="#111111" stroke="#000000"></path><path d="M350.8 411.4L353.2 404.8L336.2 390.4Z" fill="#171717" stroke="#000000"></path><path d="M251.3 585.8L194.1 546.8L232.7 596.5Z" fill="#313131" stroke="#000000"></path><path d="M251.3 585.8L239.9 530.2L194.1 546.8Z" fill="#1c1c1c" stroke="#000000"></path><path d="M277.9 528.8L356.8 527.2L278.9 516.6Z" fill="#3c3c3c" stroke="#000000"></path><path d="M312.2 346.5L312.5 353.8L338.2 328.2Z" fill="#363636" stroke="#000000"></path><path d="M312.5 353.8L312.2 346.5L270.9 353.8Z" fill="#000000" stroke="#000000"></path><path d="M232.7 596.5L194.1 546.8L179.7 592.8Z" fill="#3c3c3c" stroke="#000000"></path><path d="M251.3 585.8L274.9 579.5L274.5 578.8Z" fill="#363636" stroke="#000000"></path><path d="M274.5 578.8L316.2 566.8L277.9 528.8Z" fill="#111111" stroke="#000000"></path><path d="M126.8 558.2L132.8 552.8L135.5 525.8Z" fill="#1c1c1c" stroke="#000000"></path><path d="M179.7 592.8L194.1 546.8L166.1 555.2Z" fill="#171717" stroke="#000000"></path><path d="M312.2 346.5L264.9 315.9L270.9 353.8Z" fill="#363636" stroke="#000000"></path><path d="M203.3 303.5L168.5 322.5L225.3 344.8Z" fill="#171717" stroke="#000000"></path><path d="M241.7 310.2L225.3 344.8L250.9 322.5Z" fill="#000000" stroke="#000000"></path><path d="M159.1 350.2L127.5 312.2L150.1 361.8Z" fill="#363636" stroke="#000000"></path><path d="M66.8 351.8L72.6 417L121.5 402.4Z" fill="#171717" stroke="#000000"></path><path d="M264.9 315.9L241.7 310.2L250.9 322.5Z" fill="#212121" stroke="#000000"></path><path d="M179.7 592.8L166.1 555.2L151.1 557.5Z" fill="#212121" stroke="#000000"></path><path d="M251.3 585.8L273.3 615.5L274.9 579.5Z" fill="#000000" stroke="#000000"></path><path d="M319.5 577.5L316.2 566.8L274.9 579.5Z" fill="#090909" stroke="#000000"></path><path d="M274.9 579.5L316.2 566.8L274.5 578.8Z" fill="#1c1c1c" stroke="#000000"></path><path d="M49.2 519.8L126.8 558.2L135.5 525.8Z" fill="#000000" stroke="#000000"></path><path d="M132.8 552.8L126.8 558.2L151.1 557.5Z" fill="#000000" stroke="#000000"></path><path d="M167.1 602.1L179.7 592.8L151.1 557.5Z" fill="#262626" stroke="#000000"></path><path d="M316.2 566.8L356.8 527.2L277.9 528.8Z" fill="#171717" stroke="#000000"></path><path d="M343.5 489.2L385.4 488.2L339.2 481Z" fill="#2c2c2c" stroke="#000000"></path><path d="M241.7 310.2L203.3 303.5L225.3 344.8Z" fill="#262626" stroke="#000000"></path><path d="M338.2 328.2L312.5 353.8L336.2 390.4Z" fill="#313131" stroke="#000000"></path><path d="M312.2 346.5L318.5 326.2L264.9 315.9Z" fill="#171717" stroke="#000000"></path><path d="M189.1 274.5L198.7 294.5L206.1 263.3Z" fill="#313131" stroke="#000000"></path><path d="M308.2 603.5L319.5 577.5L274.9 579.5Z" fill="#313131" stroke="#000000"></path><path d="M316.2 566.8L352.8 546.8L356.8 527.2Z" fill="#2c2c2c" stroke="#000000"></path><path d="M319.5 577.5L352.8 546.8L316.2 566.8Z" fill="#090909" stroke="#000000"></path><path d="M121.5 402.4L72.6 417L110.8 425.4Z" fill="#000000" stroke="#000000"></path><path d="M110.8 425.4L72.6 417L104.5 450.6Z" fill="#212121" stroke="#000000"></path><path d="M104.5 450.6L68.2 482.2L107.8 476Z" fill="#262626" stroke="#000000"></path><path d="M107.8 476L68.2 482.2L135.5 525.8Z" fill="#090909" stroke="#000000"></path><path d="M66.8 351.8L121.5 402.4L150.1 361.8Z" fill="#363636" stroke="#000000"></path><path d="M179.7 592.8L233.7 610.1L232.7 596.5Z" fill="#1c1c1c" stroke="#000000"></path><path d="M232.7 596.5L233.7 610.1L251.3 585.8Z" fill="#090909" stroke="#000000"></path><path d="M72.6 417L68.2 449.4L104.5 450.6Z" fill="#1c1c1c" stroke="#000000"></path><path d="M241.7 310.2L198.7 294.5L203.3 303.5Z" fill="#2c2c2c" stroke="#000000"></path><path d="M203.3 303.5L198.7 294.5L168.5 322.5Z" fill="#1c1c1c" stroke="#000000"></path><path d="M198.7 294.5L241.7 310.2L206.1 263.3Z" fill="#2c2c2c" stroke="#000000"></path><path d="M68.2 449.4L68.2 482.2L104.5 450.6Z" fill="#111111" stroke="#000000"></path><path d="M140.5 612.5L167.1 602.1L151.1 557.5Z" fill="#363636" stroke="#000000"></path><path d="M220.3 643.7L236.3 632.1L233.7 610.1Z" fill="#000000" stroke="#000000"></path><path d="M377.2 530.2L385.4 488.2L356.8 527.2Z" fill="#313131" stroke="#000000"></path><path d="M356.8 527.2L385.4 488.2L343.5 489.2Z" fill="#313131" stroke="#000000"></path><path d="M372.8 323.2L338.2 328.2L336.2 390.4Z" fill="#171717" stroke="#000000"></path><path d="M206.1 263.3L241.7 310.2L218.3 245.9Z" fill="#171717" stroke="#000000"></path><path d="M349.5 304.9L338.2 328.2L372.8 323.2Z" fill="#313131" stroke="#000000"></path><path d="M406.4 566.8L377.2 530.2L352.8 546.8Z" fill="#212121" stroke="#000000"></path><path d="M352.8 546.8L377.2 530.2L356.8 527.2Z" fill="#111111" stroke="#000000"></path><path d="M236.3 632.1L273.3 615.5L233.7 610.1Z" fill="#000000" stroke="#000000"></path><path d="M233.7 610.1L273.3 615.5L251.3 585.8Z" fill="#313131" stroke="#000000"></path><path d="M319.5 577.5L325.5 601.1L352.8 546.8Z" fill="#3c3c3c" stroke="#000000"></path><path d="M198.7 294.5L174.7 288.9L168.5 322.5Z" fill="#262626" stroke="#000000"></path><path d="M168.5 322.5L127.5 312.2L159.1 350.2Z" fill="#313131" stroke="#000000"></path><path d="M134.5 288.9L127.5 312.2L168.5 322.5Z" fill="#2c2c2c" stroke="#000000"></path><path d="M303.9 611.1L308.2 603.5L274.9 579.5Z" fill="#090909" stroke="#000000"></path><path d="M409.8 453L419.4 482.6L416.8 450.6Z" fill="#262626" stroke="#000000"></path><path d="M385.4 488.2L402.4 459L339.2 481Z" fill="#262626" stroke="#000000"></path><path d="M273.3 615.5L303.9 611.1L274.9 579.5Z" fill="#363636" stroke="#000000"></path><path d="M308.2 603.5L325.5 601.1L319.5 577.5Z" fill="#212121" stroke="#000000"></path><path d="M72.6 417L48.2 446.6L68.2 449.4Z" fill="#1c1c1c" stroke="#000000"></path><path d="M68.2 449.4L47.2 461L68.2 482.2Z" fill="#111111" stroke="#000000"></path><path d="M41.6 449.4L0 416.8L0 441.4Z" fill="#212121" stroke="#000000"></path><path d="M303.9 611.1L325.5 601.1L308.2 603.5Z" fill="#313131" stroke="#000000"></path><path d="M48.2 446.6L47.2 461L68.2 449.4Z" fill="#090909" stroke="#000000"></path><path d="M117.5 603.1L140.5 612.5L126.8 558.2Z" fill="#1c1c1c" stroke="#000000"></path><path d="M179.7 631.7L233.7 610.1L179.7 592.8Z" fill="#3c3c3c" stroke="#000000"></path><path d="M338.2 646.1L345.5 629.7L303.9 611.1Z" fill="#111111" stroke="#000000"></path><path d="M241.7 310.2L264.9 315.9L286.5 264.3Z" fill="#262626" stroke="#000000"></path><path d="M198.7 294.5L189.1 274.5L174.7 288.9Z" fill="#090909" stroke="#000000"></path><path d="M134.5 288.9L114.8 306.2L127.5 312.2Z" fill="#1c1c1c" stroke="#000000"></path><path d="M126.8 558.2L140.5 612.5L151.1 557.5Z" fill="#090909" stroke="#000000"></path><path d="M167.1 602.1L179.7 631.7L179.7 592.8Z" fill="#3c3c3c" stroke="#000000"></path><path d="M117.5 603.1L97.8 602.1L116.8 603.5Z" fill="#000000" stroke="#000000"></path><path d="M409.8 453L402.4 459L419.4 482.6Z" fill="#363636" stroke="#000000"></path><path d="M402.4 459L409.8 453L350.8 411.4Z" fill="#262626" stroke="#000000"></path><path d="M134.5 288.9L168.5 322.5L174.7 288.9Z" fill="#090909" stroke="#000000"></path><path d="M127.5 312.2L66.8 351.8L150.1 361.8Z" fill="#3c3c3c" stroke="#000000"></path><path d="M41.6 449.4L48.2 446.6L0 416.8Z" fill="#3c3c3c" stroke="#000000"></path><path d="M48.2 446.6L41.6 449.4L47.2 461Z" fill="#212121" stroke="#000000"></path><path d="M140.5 612.5L179.7 631.7L167.1 602.1Z" fill="#2c2c2c" stroke="#000000"></path><path d="M117.5 603.1L126.8 558.2L97.8 602.1Z" fill="#171717" stroke="#000000"></path><path d="M155.5 688.9L178.1 685.7L179.7 631.7Z" fill="#1c1c1c" stroke="#000000"></path><path d="M49.2 519.8L135.5 525.8L68.2 482.2Z" fill="#262626" stroke="#000000"></path><path d="M117.5 603.1L116.8 603.5L140.5 612.5Z" fill="#1c1c1c" stroke="#000000"></path><path d="M158.1 275.9L134.5 288.9L174.7 288.9Z" fill="#212121" stroke="#000000"></path><path d="M114.8 306.2L66.8 351.8L127.5 312.2Z" fill="#262626" stroke="#000000"></path><path d="M189.1 274.5L158.1 275.9L174.7 288.9Z" fill="#262626" stroke="#000000"></path><path d="M41.6 497.2L68.2 482.2L47.2 461Z" fill="#313131" stroke="#000000"></path><path d="M41.6 497.2L49.2 519.8L68.2 482.2Z" fill="#171717" stroke="#000000"></path><path d="M286.5 264.3L264.9 315.9L318.5 274.5Z" fill="#2c2c2c" stroke="#000000"></path><path d="M189.1 274.5L188.7 245.7L158.1 275.9Z" fill="#262626" stroke="#000000"></path><path d="M419.4 482.6L402.4 459L385.4 488.2Z" fill="#2c2c2c" stroke="#000000"></path><path d="M420.4 432.4L353.2 404.8L350.8 411.4Z" fill="#3c3c3c" stroke="#000000"></path><path d="M0 488L41.6 497.2L47.2 461Z" fill="#171717" stroke="#000000"></path><path d="M179.7 631.7L220.3 643.7L233.7 610.1Z" fill="#363636" stroke="#000000"></path><path d="M338.2 646.1L303.9 611.1L294.9 687.3Z" fill="#363636" stroke="#000000"></path><path d="M372.8 323.2L336.2 390.4L398.8 347.8Z" fill="#212121" stroke="#000000"></path><path d="M338.2 328.2L349.5 304.9L318.5 326.2Z" fill="#212121" stroke="#000000"></path><path d="M420.4 432.4L350.8 411.4L409.8 453Z" fill="#000000" stroke="#000000"></path><path d="M416.8 450.6L420.4 432.4L409.8 453Z" fill="#2c2c2c" stroke="#000000"></path><path d="M398.8 347.8L336.2 390.4L353.2 404.8Z" fill="#363636" stroke="#000000"></path><path d="M450 495.2L419.4 482.6L450 543.8Z" fill="#1c1c1c" stroke="#000000"></path><path d="M377.2 530.2L419.4 482.6L385.4 488.2Z" fill="#111111" stroke="#000000"></path><path d="M416.8 450.6L450 431.4L420.4 432.4Z" fill="#090909" stroke="#000000"></path><path d="M318.5 274.5L264.9 315.9L318.5 326.2Z" fill="#000000" stroke="#000000"></path><path d="M62.6 601.1L97.8 602.1L126.8 558.2Z" fill="#363636" stroke="#000000"></path><path d="M116.8 603.5L107.2 623.5L140.5 612.5Z" fill="#171717" stroke="#000000"></path><path d="M349.5 304.9L318.5 274.5L318.5 326.2Z" fill="#171717" stroke="#000000"></path><path d="M359.2 295.9L318.5 274.5L349.5 304.9Z" fill="#262626" stroke="#000000"></path><path d="M41.6 497.2L36.6 516.8L49.2 519.8Z" fill="#090909" stroke="#000000"></path><path d="M49.2 519.8L62.6 601.1L126.8 558.2Z" fill="#000000" stroke="#000000"></path><path d="M20.6 523.6L36.6 516.8L41.6 497.2Z" fill="#111111" stroke="#000000"></path><path d="M411.4 390.8L398.8 347.8L353.2 404.8Z" fill="#3c3c3c" stroke="#000000"></path><path d="M56.2 339.2L46.2 360.8L66.8 351.8Z" fill="#212121" stroke="#000000"></path><path d="M66.8 351.8L46.2 360.8L72.6 417Z" fill="#212121" stroke="#000000"></path><path d="M0 497.2L20.6 523.6L41.6 497.2Z" fill="#2c2c2c" stroke="#000000"></path><path d="M56.2 339.2L66.8 351.8L114.8 306.2Z" fill="#212121" stroke="#000000"></path><path d="M41.6 298.5L56.2 339.2L114.8 306.2Z" fill="#171717" stroke="#000000"></path><path d="M399.8 314.9L359.2 295.9L372.8 323.2Z" fill="#090909" stroke="#000000"></path><path d="M372.8 323.2L359.2 295.9L349.5 304.9Z" fill="#3c3c3c" stroke="#000000"></path><path d="M398.8 347.8L389.4 325.2L372.8 323.2Z" fill="#000000" stroke="#000000"></path><path d="M286.5 264.3L218.3 245.9L241.7 310.2Z" fill="#363636" stroke="#000000"></path><path d="M206.1 263.3L188.7 245.7L189.1 274.5Z" fill="#212121" stroke="#000000"></path><path d="M158.1 275.9L121.8 272.5L134.5 288.9Z" fill="#171717" stroke="#000000"></path><path d="M134.5 288.9L121.8 272.5L114.8 306.2Z" fill="#000000" stroke="#000000"></path><path d="M120.8 254.9L121.8 272.5L158.1 275.9Z" fill="#111111" stroke="#000000"></path><path d="M62.6 601.1L107.2 623.5L97.8 602.1Z" fill="#111111" stroke="#000000"></path><path d="M97.8 602.1L107.2 623.5L116.8 603.5Z" fill="#1c1c1c" stroke="#000000"></path><path d="M178.1 685.7L244.7 684.3L220.3 643.7Z" fill="#363636" stroke="#000000"></path><path d="M218.3 245.9L197.7 244.3L206.1 263.3Z" fill="#313131" stroke="#000000"></path><path d="M197.7 244.3L188.7 245.7L206.1 263.3Z" fill="#171717" stroke="#000000"></path><path d="M394.8 588.5L352.8 546.8L325.5 601.1Z" fill="#1c1c1c" stroke="#000000"></path><path d="M394.8 588.5L406.4 566.8L352.8 546.8Z" fill="#2c2c2c" stroke="#000000"></path><path d="M303.9 611.1L273.3 615.5L294.9 687.3Z" fill="#000000" stroke="#000000"></path><path d="M303.9 611.1L345.5 629.7L325.5 601.1Z" fill="#2c2c2c" stroke="#000000"></path><path d="M365.8 624.1L394.8 588.5L325.5 601.1Z" fill="#171717" stroke="#000000"></path><path d="M0 488L47.2 461L41.6 449.4Z" fill="#2c2c2c" stroke="#000000"></path><path d="M36.6 516.8L20.6 523.6L49.2 519.8Z" fill="#000000" stroke="#000000"></path><path d="M365.8 624.1L395.4 591.1L394.8 588.5Z" fill="#262626" stroke="#000000"></path><path d="M394.8 588.5L418.4 568.5L406.4 566.8Z" fill="#171717" stroke="#000000"></path><path d="M411.4 390.8L417.8 342.5L398.8 347.8Z" fill="#1c1c1c" stroke="#000000"></path><path d="M398.8 347.8L417.8 342.5L389.4 325.2Z" fill="#313131" stroke="#000000"></path><path d="M389.4 325.2L399.8 314.9L372.8 323.2Z" fill="#171717" stroke="#000000"></path><path d="M448.4 342.5L417.8 342.5L411.4 390.8Z" fill="#3c3c3c" stroke="#000000"></path><path d="M417.8 342.5L399.8 314.9L389.4 325.2Z" fill="#1c1c1c" stroke="#000000"></path><path d="M308.2 242.3L286.5 264.3L318.5 274.5Z" fill="#262626" stroke="#000000"></path><path d="M120.8 254.9L103.2 268.9L121.8 272.5Z" fill="#3c3c3c" stroke="#000000"></path><path d="M121.8 272.5L103.2 268.9L114.8 306.2Z" fill="#171717" stroke="#000000"></path><path d="M345.5 629.7L365.8 624.1L325.5 601.1Z" fill="#090909" stroke="#000000"></path><path d="M36.2 589.1L62.6 601.1L49.2 519.8Z" fill="#262626" stroke="#000000"></path><path d="M287.9 229.3L256.3 231.3L286.5 264.3Z" fill="#313131" stroke="#000000"></path><path d="M286.5 264.3L256.3 231.3L218.3 245.9Z" fill="#111111" stroke="#000000"></path><path d="M218.3 245.9L214.3 211.7L197.7 244.3Z" fill="#090909" stroke="#000000"></path><path d="M148.1 203.1L147.5 226.3L188.7 245.7Z" fill="#171717" stroke="#000000"></path><path d="M308.2 242.3L358.8 247.3L315.2 226.7Z" fill="#171717" stroke="#000000"></path><path d="M450 482L450 463.6L419.4 482.6Z" fill="#111111" stroke="#000000"></path><path d="M419.4 482.6L450 463.6L416.8 450.6Z" fill="#090909" stroke="#000000"></path><path d="M420.4 432.4L450 397.8L411.4 390.8Z" fill="#1c1c1c" stroke="#000000"></path><path d="M244.7 684.3L273.3 615.5L236.3 632.1Z" fill="#111111" stroke="#000000"></path><path d="M345.5 629.7L338.2 646.1L365.8 624.1Z" fill="#1c1c1c" stroke="#000000"></path><path d="M147.5 226.3L158.1 275.9L188.7 245.7Z" fill="#313131" stroke="#000000"></path><path d="M147.5 226.3L120.8 254.9L158.1 275.9Z" fill="#171717" stroke="#000000"></path><path d="M395.4 591.1L418.4 568.5L394.8 588.5Z" fill="#171717" stroke="#000000"></path><path d="M406.4 566.8L450 543.8L377.2 530.2Z" fill="#1c1c1c" stroke="#000000"></path><path d="M450 543.8L418.4 568.5L450 593.1Z" fill="#111111" stroke="#000000"></path><path d="M450 463.6L450 431.4L416.8 450.6Z" fill="#363636" stroke="#000000"></path><path d="M308.2 242.3L318.5 274.5L358.8 247.3Z" fill="#090909" stroke="#000000"></path><path d="M450 495.2L450 482L419.4 482.6Z" fill="#000000" stroke="#000000"></path><path d="M0 416.8L72.6 417L46.2 360.8Z" fill="#212121" stroke="#000000"></path><path d="M0 416.8L48.2 446.6L72.6 417Z" fill="#212121" stroke="#000000"></path><path d="M450 543.8L419.4 482.6L377.2 530.2Z" fill="#2c2c2c" stroke="#000000"></path><path d="M-5.4 419.8L0 416.8L0 379.2Z" fill="#111111" stroke="#000000"></path><path d="M0 416.8L46.2 360.8L0 379.2Z" fill="#3c3c3c" stroke="#000000"></path><path d="M0 441.4L0 488L41.6 449.4Z" fill="#090909" stroke="#000000"></path><path d="M20.6 523.6L36.2 589.1L49.2 519.8Z" fill="#363636" stroke="#000000"></path><path d="M450 431.4L450 397.8L420.4 432.4Z" fill="#171717" stroke="#000000"></path><path d="M308.2 242.3L287.9 229.3L286.5 264.3Z" fill="#313131" stroke="#000000"></path><path d="M0 488L0 497.2L41.6 497.2Z" fill="#2c2c2c" stroke="#000000"></path><path d="M178.1 685.7L220.3 643.7L179.7 631.7Z" fill="#262626" stroke="#000000"></path><path d="M220.3 643.7L244.7 684.3L236.3 632.1Z" fill="#111111" stroke="#000000"></path><path d="M0 416.8L-5.4 419.8L0 441.4Z" fill="#171717" stroke="#000000"></path><path d="M0 441.4L-5.4 419.8L0 488Z" fill="#171717" stroke="#000000"></path><path d="M0 488L-5.4 419.8L0 497.2Z" fill="#262626" stroke="#000000"></path><path d="M0 379.2L46.2 360.8L1.6 374.2Z" fill="#363636" stroke="#000000"></path><path d="M107.5 664.3L140.5 612.5L107.2 623.5Z" fill="#2c2c2c" stroke="#000000"></path><path d="M0 584.5L36.2 589.1L20.6 523.6Z" fill="#212121" stroke="#000000"></path><path d="M-5.4 419.8L0 523.6L0 497.2Z" fill="#2c2c2c" stroke="#000000"></path><path d="M0 497.2L0 523.6L20.6 523.6Z" fill="#111111" stroke="#000000"></path><path d="M1.6 374.2L46.2 360.8L0 332.5Z" fill="#2c2c2c" stroke="#000000"></path><path d="M29.2 313.5L46.2 360.8L56.2 339.2Z" fill="#171717" stroke="#000000"></path><path d="M95.8 651.7L107.2 623.5L62.6 601.1Z" fill="#313131" stroke="#000000"></path><path d="M155.5 688.9L179.7 631.7L127.5 679.7Z" fill="#212121" stroke="#000000"></path><path d="M40.2 646.7L95.8 651.7L62.6 601.1Z" fill="#111111" stroke="#000000"></path><path d="M214.3 211.7L188.7 245.7L197.7 244.3Z" fill="#171717" stroke="#000000"></path><path d="M51.2 264.3L41.6 298.5L103.2 268.9Z" fill="#212121" stroke="#000000"></path><path d="M214.3 211.7L218.3 245.9L256.3 231.3Z" fill="#090909" stroke="#000000"></path><path d="M51.2 264.3L103.2 268.9L75.8 239.3Z" fill="#2c2c2c" stroke="#000000"></path><path d="M103.2 268.9L41.6 298.5L114.8 306.2Z" fill="#171717" stroke="#000000"></path><path d="M262.9 207.1L214.3 211.7L256.3 231.3Z" fill="#212121" stroke="#000000"></path><path d="M41.6 298.5L29.2 313.5L56.2 339.2Z" fill="#171717" stroke="#000000"></path><path d="M450 593.1L418.4 568.5L395.4 591.1Z" fill="#363636" stroke="#000000"></path><path d="M418.4 568.5L450 543.8L406.4 566.8Z" fill="#111111" stroke="#000000"></path><path d="M308.2 242.3L315.2 226.7L287.9 229.3Z" fill="#090909" stroke="#000000"></path><path d="M287.9 229.3L262.9 207.1L256.3 231.3Z" fill="#313131" stroke="#000000"></path><path d="M358.8 247.3L318.5 274.5L359.2 295.9Z" fill="#363636" stroke="#000000"></path><path d="M85.2 681.3L107.5 664.3L95.8 651.7Z" fill="#090909" stroke="#000000"></path><path d="M95.8 651.7L107.5 664.3L107.2 623.5Z" fill="#090909" stroke="#000000"></path><path d="M425.4 256.3L358.8 247.3L359.2 295.9Z" fill="#212121" stroke="#000000"></path><path d="M425.4 256.3L359.2 295.9L399.8 314.9Z" fill="#3c3c3c" stroke="#000000"></path><path d="M244.7 684.3L294.9 687.3L273.3 615.5Z" fill="#313131" stroke="#000000"></path><path d="M338.2 646.1L349.8 670.3L365.8 624.1Z" fill="#363636" stroke="#000000"></path><path d="M312.9 695.7L294.9 687.3L305.9 722.9Z" fill="#212121" stroke="#000000"></path><path d="M294.9 687.3L333.2 674.7L338.2 646.1Z" fill="#3c3c3c" stroke="#000000"></path><path d="M450 622.5L450 593.1L395.4 591.1Z" fill="#2c2c2c" stroke="#000000"></path><path d="M127.5 679.7L179.7 631.7L140.5 612.5Z" fill="#2c2c2c" stroke="#000000"></path><path d="M261.3 708.3L294.9 687.3L244.7 684.3Z" fill="#363636" stroke="#000000"></path><path d="M450 397.8L448.4 342.5L411.4 390.8Z" fill="#363636" stroke="#000000"></path><path d="M417.8 342.5L450 310.2L399.8 314.9Z" fill="#090909" stroke="#000000"></path><path d="M290.9 205.7L262.9 207.1L287.9 229.3Z" fill="#2c2c2c" stroke="#000000"></path><path d="M107.5 664.3L127.5 679.7L140.5 612.5Z" fill="#3c3c3c" stroke="#000000"></path><path d="M331.5 705.3L349.8 670.3L333.2 674.7Z" fill="#000000" stroke="#000000"></path><path d="M333.2 674.7L349.8 670.3L338.2 646.1Z" fill="#090909" stroke="#000000"></path><path d="M313.5 197.7L290.9 205.7L315.2 226.7Z" fill="#212121" stroke="#000000"></path><path d="M315.2 226.7L290.9 205.7L287.9 229.3Z" fill="#111111" stroke="#000000"></path><path d="M29.2 313.5L0 332.5L46.2 360.8Z" fill="#3c3c3c" stroke="#000000"></path><path d="M1.6 374.2L0 332.5L0 379.2Z" fill="#090909" stroke="#000000"></path><path d="M0 379.2L0 332.5L-5.4 419.8Z" fill="#1c1c1c" stroke="#000000"></path><path d="M-3.4 256.9L0 332.5L29.2 313.5Z" fill="#262626" stroke="#000000"></path><path d="M0 587.8L19.6 604.5L36.2 589.1Z" fill="#212121" stroke="#000000"></path><path d="M36.2 589.1L19.6 604.5L62.6 601.1Z" fill="#2c2c2c" stroke="#000000"></path><path d="M85.2 681.3L130.8 694.3L127.5 679.7Z" fill="#3c3c3c" stroke="#000000"></path><path d="M75.8 239.3L103.2 268.9L120.8 254.9Z" fill="#171717" stroke="#000000"></path><path d="M41.6 298.5L-3.4 256.9L29.2 313.5Z" fill="#111111" stroke="#000000"></path><path d="M261.3 708.3L250.3 724.5L261.3 710.9Z" fill="#212121" stroke="#000000"></path><path d="M294.9 687.3L312.9 695.7L333.2 674.7Z" fill="#171717" stroke="#000000"></path><path d="M198.1 709.3L244.7 684.3L178.1 685.7Z" fill="#2c2c2c" stroke="#000000"></path><path d="M208.1 727.5L198.1 709.3L198.7 735.9Z" fill="#111111" stroke="#000000"></path><path d="M155.5 688.9L198.1 709.3L178.1 685.7Z" fill="#1c1c1c" stroke="#000000"></path><path d="M85.2 681.3L127.5 679.7L107.5 664.3Z" fill="#171717" stroke="#000000"></path><path d="M127.5 679.7L130.8 694.3L155.5 688.9Z" fill="#313131" stroke="#000000"></path><path d="M106.5 217.7L75.8 239.3L120.8 254.9Z" fill="#171717" stroke="#000000"></path><path d="M106.5 217.7L120.8 254.9L147.5 226.3Z" fill="#1c1c1c" stroke="#000000"></path><path d="M250.3 724.5L261.3 708.3L244.7 684.3Z" fill="#212121" stroke="#000000"></path><path d="M261.3 708.3L261.3 710.9L294.9 687.3Z" fill="#000000" stroke="#000000"></path><path d="M157.5 187.1L148.1 203.1L214.3 211.7Z" fill="#1c1c1c" stroke="#000000"></path><path d="M214.3 211.7L148.1 203.1L188.7 245.7Z" fill="#3c3c3c" stroke="#000000"></path><path d="M208.1 180.7L214.3 211.7L262.9 207.1Z" fill="#2c2c2c" stroke="#000000"></path><path d="M-5.4 419.8L0 584.5L0 523.6Z" fill="#171717" stroke="#000000"></path><path d="M0 523.6L0 584.5L20.6 523.6Z" fill="#313131" stroke="#000000"></path><path d="M148.1 203.1L106.5 217.7L147.5 226.3Z" fill="#111111" stroke="#000000"></path><path d="M450 622.5L395.4 591.1L450 626.7Z" fill="#3c3c3c" stroke="#000000"></path><path d="M-5.4 419.8L0 587.8L0 584.5Z" fill="#313131" stroke="#000000"></path><path d="M0 584.5L0 587.8L36.2 589.1Z" fill="#171717" stroke="#000000"></path><path d="M454.4 297.9L450 310.2L448.4 342.5Z" fill="#363636" stroke="#000000"></path><path d="M448.4 342.5L450 310.2L417.8 342.5Z" fill="#171717" stroke="#000000"></path><path d="M327.5 192.1L313.5 197.7L315.2 226.7Z" fill="#1c1c1c" stroke="#000000"></path><path d="M290.9 205.7L285.9 168.5L262.9 207.1Z" fill="#212121" stroke="#000000"></path><path d="M370.8 215.7L315.2 226.7L358.8 247.3Z" fill="#1c1c1c" stroke="#000000"></path><path d="M40.2 646.7L85.2 681.3L95.8 651.7Z" fill="#1c1c1c" stroke="#000000"></path><path d="M40.2 646.7L62.6 601.1L19.6 604.5Z" fill="#262626" stroke="#000000"></path><path d="M34.6 646.7L40.2 646.7L19.6 604.5Z" fill="#090909" stroke="#000000"></path><path d="M69.8 209.7L40.6 254.3L75.8 239.3Z" fill="#363636" stroke="#000000"></path><path d="M75.8 239.3L40.6 254.3L51.2 264.3Z" fill="#212121" stroke="#000000"></path><path d="M51.2 264.3L40.6 254.3L41.6 298.5Z" fill="#1c1c1c" stroke="#000000"></path><path d="M246.7 144.1L208.1 180.7L262.9 207.1Z" fill="#212121" stroke="#000000"></path><path d="M148.1 203.1L102.2 202.7L106.5 217.7Z" fill="#1c1c1c" stroke="#000000"></path><path d="M0 634.1L34.6 646.7L19.6 604.5Z" fill="#090909" stroke="#000000"></path><path d="M51.6 714.3L78.2 713.9L85.2 681.3Z" fill="#000000" stroke="#000000"></path><path d="M208.1 727.5L250.3 724.5L244.7 684.3Z" fill="#000000" stroke="#000000"></path><path d="M314.5 721.5L331.5 705.3L312.9 695.7Z" fill="#262626" stroke="#000000"></path><path d="M208.1 727.5L244.7 684.3L198.1 709.3Z" fill="#111111" stroke="#000000"></path><path d="M208.1 180.7L157.5 187.1L214.3 211.7Z" fill="#313131" stroke="#000000"></path><path d="M106.5 217.7L69.8 209.7L75.8 239.3Z" fill="#262626" stroke="#000000"></path><path d="M312.9 695.7L331.5 705.3L333.2 674.7Z" fill="#363636" stroke="#000000"></path><path d="M349.8 670.3L368.8 687.7L365.8 624.1Z" fill="#000000" stroke="#000000"></path><path d="M305.9 722.9L294.9 687.3L261.3 710.9Z" fill="#2c2c2c" stroke="#000000"></path><path d="M450 397.8L454.4 297.9L448.4 342.5Z" fill="#1c1c1c" stroke="#000000"></path><path d="M450 310.2L450 287.5L399.8 314.9Z" fill="#363636" stroke="#000000"></path><path d="M450 431.4L454.4 297.9L450 397.8Z" fill="#3c3c3c" stroke="#000000"></path><path d="M450 463.6L454.4 297.9L450 431.4Z" fill="#313131" stroke="#000000"></path><path d="M450 482L454.4 297.9L450 463.6Z" fill="#212121" stroke="#000000"></path><path d="M453.4 640.7L454.4 297.9L450 482Z" fill="#212121" stroke="#000000"></path><path d="M453.4 640.7L450 482L450 495.2Z" fill="#212121" stroke="#000000"></path><path d="M453.4 640.7L450 495.2L450 543.8Z" fill="#2c2c2c" stroke="#000000"></path><path d="M331.5 705.3L368.8 687.7L349.8 670.3Z" fill="#000000" stroke="#000000"></path><path d="M198.1 709.3L155.5 688.9L138.1 725.9Z" fill="#2c2c2c" stroke="#000000"></path><path d="M198.7 735.9L198.1 709.3L138.1 725.9Z" fill="#1c1c1c" stroke="#000000"></path><path d="M425.4 256.3L370.8 215.7L358.8 247.3Z" fill="#111111" stroke="#000000"></path><path d="M454.4 297.9L450 287.5L450 310.2Z" fill="#000000" stroke="#000000"></path><path d="M135.8 177.1L102.2 202.7L148.1 203.1Z" fill="#363636" stroke="#000000"></path><path d="M370.8 215.7L327.5 192.1L315.2 226.7Z" fill="#262626" stroke="#000000"></path><path d="M313.5 197.7L285.9 168.5L290.9 205.7Z" fill="#1c1c1c" stroke="#000000"></path><path d="M450 287.5L425.4 256.3L399.8 314.9Z" fill="#171717" stroke="#000000"></path><path d="M450 626.7L395.4 591.1L365.8 624.1Z" fill="#3c3c3c" stroke="#000000"></path><path d="M450 593.1L453.4 640.7L450 543.8Z" fill="#090909" stroke="#000000"></path><path d="M331.5 705.3L381.2 722.3L368.8 687.7Z" fill="#313131" stroke="#000000"></path><path d="M250.3 724.5L305.9 722.9L261.3 710.9Z" fill="#1c1c1c" stroke="#000000"></path><path d="M314.5 721.5L328.2 761.9L337.2 728.5Z" fill="#1c1c1c" stroke="#000000"></path><path d="M305.9 722.9L314.5 721.5L312.9 695.7Z" fill="#000000" stroke="#000000"></path><path d="M453.4 640.7L450 626.7L365.8 624.1Z" fill="#1c1c1c" stroke="#000000"></path><path d="M450 622.5L453.4 640.7L450 593.1Z" fill="#000000" stroke="#000000"></path><path d="M425.4 256.3L377.4 211.1L370.8 215.7Z" fill="#2c2c2c" stroke="#000000"></path><path d="M366.2 162.5L352.8 160.1L327.5 192.1Z" fill="#111111" stroke="#000000"></path><path d="M138.1 725.9L155.5 688.9L130.8 694.3Z" fill="#262626" stroke="#000000"></path><path d="M208.1 727.5L244.7 749.5L250.3 724.5Z" fill="#212121" stroke="#000000"></path><path d="M78.2 713.9L130.8 694.3L85.2 681.3Z" fill="#262626" stroke="#000000"></path><path d="M78.2 713.9L138.1 725.9L130.8 694.3Z" fill="#363636" stroke="#000000"></path><path d="M67.6 196.7L69.8 209.7L102.2 202.7Z" fill="#1c1c1c" stroke="#000000"></path><path d="M102.2 202.7L69.8 209.7L106.5 217.7Z" fill="#171717" stroke="#000000"></path><path d="M125.8 161.5L135.8 177.1L157.5 187.1Z" fill="#2c2c2c" stroke="#000000"></path><path d="M157.5 187.1L135.8 177.1L148.1 203.1Z" fill="#111111" stroke="#000000"></path><path d="M330.5 134.5L285.9 168.5L327.5 192.1Z" fill="#262626" stroke="#000000"></path><path d="M327.5 192.1L285.9 168.5L313.5 197.7Z" fill="#212121" stroke="#000000"></path><path d="M210.3 142.1L125.8 161.5L157.5 187.1Z" fill="#3c3c3c" stroke="#000000"></path><path d="M0 587.8L0 634.1L19.6 604.5Z" fill="#2c2c2c" stroke="#000000"></path><path d="M51.6 714.3L85.2 681.3L40.2 646.7Z" fill="#3c3c3c" stroke="#000000"></path><path d="M-4.4 777.2L0 634.1L0 587.8Z" fill="#090909" stroke="#000000"></path><path d="M368.8 687.7L453.4 640.7L365.8 624.1Z" fill="#313131" stroke="#000000"></path><path d="M450 626.7L453.4 640.7L450 622.5Z" fill="#313131" stroke="#000000"></path><path d="M450 709.9L453.4 640.7L368.8 687.7Z" fill="#363636" stroke="#000000"></path><path d="M343.5 735.9L337.2 728.5L328.2 761.9Z" fill="#262626" stroke="#000000"></path><path d="M314.5 721.5L337.2 728.5L331.5 705.3Z" fill="#3c3c3c" stroke="#000000"></path><path d="M244.7 749.5L305.9 722.9L250.3 724.5Z" fill="#212121" stroke="#000000"></path><path d="M231.3 770.2L208.1 727.5L198.7 735.9Z" fill="#313131" stroke="#000000"></path><path d="M231.3 770.2L244.7 749.5L208.1 727.5Z" fill="#111111" stroke="#000000"></path><path d="M51.6 714.3L40.2 646.7L7.6 692.9Z" fill="#000000" stroke="#000000"></path><path d="M138.1 725.9L133.8 756.2L198.7 735.9Z" fill="#171717" stroke="#000000"></path><path d="M103.2 167.1L67.6 196.7L102.2 202.7Z" fill="#1c1c1c" stroke="#000000"></path><path d="M0 236.3L0 250.9L40.6 254.3Z" fill="#090909" stroke="#000000"></path><path d="M40.6 254.3L-3.4 256.9L41.6 298.5Z" fill="#313131" stroke="#000000"></path><path d="M0 250.9L-3.4 256.9L40.6 254.3Z" fill="#1c1c1c" stroke="#000000"></path><path d="M0 332.5L-3.4 256.9L-5.4 419.8Z" fill="#111111" stroke="#000000"></path><path d="M450 287.5L450 248.9L425.4 256.3Z" fill="#111111" stroke="#000000"></path><path d="M425.4 256.3L450 225.3L377.4 211.1Z" fill="#363636" stroke="#000000"></path><path d="M454.4 297.9L450 248.9L450 287.5Z" fill="#111111" stroke="#000000"></path><path d="M0 236.3L40.6 254.3L0 217.7Z" fill="#212121" stroke="#000000"></path><path d="M328.2 761.9L314.5 721.5L305.9 722.9Z" fill="#212121" stroke="#000000"></path><path d="M337.2 728.5L381.2 722.3L331.5 705.3Z" fill="#212121" stroke="#000000"></path><path d="M-4.4 777.2L0 659.3L0 634.1Z" fill="#3c3c3c" stroke="#000000"></path><path d="M0 634.1L0 659.3L34.6 646.7Z" fill="#111111" stroke="#000000"></path><path d="M135.8 177.1L103.2 167.1L102.2 202.7Z" fill="#111111" stroke="#000000"></path><path d="M210.3 142.1L157.5 187.1L208.1 180.7Z" fill="#1c1c1c" stroke="#000000"></path><path d="M244.7 139.8L246.7 144.1L254.3 105.5Z" fill="#313131" stroke="#000000"></path><path d="M285.9 168.5L246.7 144.1L262.9 207.1Z" fill="#171717" stroke="#000000"></path><path d="M246.7 144.1L210.3 142.1L208.1 180.7Z" fill="#212121" stroke="#000000"></path><path d="M125.8 161.5L103.2 167.1L135.8 177.1Z" fill="#2c2c2c" stroke="#000000"></path><path d="M0 217.7L40.6 254.3L69.8 209.7Z" fill="#2c2c2c" stroke="#000000"></path><path d="M343.5 735.9L381.2 722.3L337.2 728.5Z" fill="#1c1c1c" stroke="#000000"></path><path d="M311.5 122.8L246.7 144.1L285.9 168.5Z" fill="#000000" stroke="#000000"></path><path d="M246.7 144.1L244.7 139.8L210.3 142.1Z" fill="#212121" stroke="#000000"></path><path d="M327.5 192.1L370.8 215.7L366.2 162.5Z" fill="#171717" stroke="#000000"></path><path d="M0 217.7L69.8 209.7L67.6 196.7Z" fill="#262626" stroke="#000000"></path><path d="M0 250.9L0 236.3L-3.4 256.9Z" fill="#1c1c1c" stroke="#000000"></path><path d="M7.6 692.9L40.2 646.7L34.6 646.7Z" fill="#212121" stroke="#000000"></path><path d="M119.8 751.9L133.8 756.2L138.1 725.9Z" fill="#171717" stroke="#000000"></path><path d="M119.8 751.9L138.1 725.9L100.8 746.5Z" fill="#1c1c1c" stroke="#000000"></path><path d="M199.7 803.2L231.3 770.2L198.7 735.9Z" fill="#000000" stroke="#000000"></path><path d="M266.9 785.5L328.2 761.9L305.9 722.9Z" fill="#313131" stroke="#000000"></path><path d="M366.2 162.5L370.8 215.7L377.4 211.1Z" fill="#363636" stroke="#000000"></path><path d="M100.8 746.5L138.1 725.9L78.2 713.9Z" fill="#000000" stroke="#000000"></path><path d="M454.4 297.9L450 225.3L450 248.9Z" fill="#262626" stroke="#000000"></path><path d="M450 248.9L450 225.3L425.4 256.3Z" fill="#000000" stroke="#000000"></path><path d="M0 659.3L0 676.7L34.6 646.7Z" fill="#171717" stroke="#000000"></path><path d="M-4.4 777.2L0 676.7L0 659.3Z" fill="#262626" stroke="#000000"></path><path d="M58.2 738.5L100.8 746.5L78.2 713.9Z" fill="#313131" stroke="#000000"></path><path d="M119.8 751.9L140.5 792.2L133.8 756.2Z" fill="#3c3c3c" stroke="#000000"></path><path d="M436.4 188.7L366.2 162.5L377.4 211.1Z" fill="#313131" stroke="#000000"></path><path d="M207.7 113.5L211.1 122.8L215.3 112.8Z" fill="#090909" stroke="#000000"></path><path d="M0 676.7L7.6 692.9L34.6 646.7Z" fill="#212121" stroke="#000000"></path><path d="M51.6 714.3L58.2 738.5L78.2 713.9Z" fill="#212121" stroke="#000000"></path><path d="M266.9 785.5L305.9 722.9L244.7 749.5Z" fill="#212121" stroke="#000000"></path><path d="M343.5 735.9L345.8 758.9L381.2 722.3Z" fill="#1c1c1c" stroke="#000000"></path><path d="M26.6 158.5L0 217.7L67.6 196.7Z" fill="#1c1c1c" stroke="#000000"></path><path d="M0 236.3L0 217.7L-3.4 256.9Z" fill="#3c3c3c" stroke="#000000"></path><path d="M328.2 761.9L345.8 758.9L343.5 735.9Z" fill="#313131" stroke="#000000"></path><path d="M244.7 139.8L211.1 122.8L210.3 142.1Z" fill="#171717" stroke="#000000"></path><path d="M210.3 142.1L189.1 102.5L125.8 161.5Z" fill="#262626" stroke="#000000"></path><path d="M125.8 161.5L104.5 138.5L103.2 167.1Z" fill="#1c1c1c" stroke="#000000"></path><path d="M330.5 134.5L327.5 192.1L352.8 160.1Z" fill="#090909" stroke="#000000"></path><path d="M-4.4 777.2L0 691.9L0 676.7Z" fill="#2c2c2c" stroke="#000000"></path><path d="M0 676.7L0 691.9L7.6 692.9Z" fill="#1c1c1c" stroke="#000000"></path><path d="M0 731.5L58.2 738.5L51.6 714.3Z" fill="#000000" stroke="#000000"></path><path d="M0 731.5L51.6 714.3L7.6 692.9Z" fill="#000000" stroke="#000000"></path><path d="M106.5 800.5L140.5 792.2L119.8 751.9Z" fill="#313131" stroke="#000000"></path><path d="M376.2 134.1L352.8 160.1L366.2 162.5Z" fill="#262626" stroke="#000000"></path><path d="M376.2 134.1L330.5 134.5L352.8 160.1Z" fill="#090909" stroke="#000000"></path><path d="M230.7 807.8L266.9 785.5L231.3 770.2Z" fill="#171717" stroke="#000000"></path><path d="M231.3 770.2L266.9 785.5L244.7 749.5Z" fill="#3c3c3c" stroke="#000000"></path><path d="M393.8 780.2L395.4 778.2L345.8 758.9Z" fill="#313131" stroke="#000000"></path><path d="M138.5 104.8L104.5 138.5L125.8 161.5Z" fill="#171717" stroke="#000000"></path><path d="M103.2 167.1L94.2 140.5L67.6 196.7Z" fill="#2c2c2c" stroke="#000000"></path><path d="M450 225.3L436.4 188.7L377.4 211.1Z" fill="#3c3c3c" stroke="#000000"></path><path d="M104.5 138.5L94.2 140.5L103.2 167.1Z" fill="#212121" stroke="#000000"></path><path d="M215.3 112.8L211.1 122.8L244.7 139.8Z" fill="#363636" stroke="#000000"></path><path d="M211.1 122.8L189.1 102.5L210.3 142.1Z" fill="#1c1c1c" stroke="#000000"></path><path d="M104.5 138.5L111.8 93.8L94.2 140.5Z" fill="#313131" stroke="#000000"></path><path d="M254.3 105.5L215.3 112.8L244.7 139.8Z" fill="#090909" stroke="#000000"></path><path d="M299.5 90.2L311.5 122.8L340.5 73.6Z" fill="#212121" stroke="#000000"></path><path d="M330.5 134.5L311.5 122.8L285.9 168.5Z" fill="#2c2c2c" stroke="#000000"></path><path d="M381.2 722.3L450 709.9L368.8 687.7Z" fill="#111111" stroke="#000000"></path><path d="M443.4 722.3L450 709.9L381.2 722.3Z" fill="#313131" stroke="#000000"></path><path d="M428.4 744.9L443.4 722.3L381.2 722.3Z" fill="#000000" stroke="#000000"></path><path d="M443.4 722.3L450 718.3L450 709.9Z" fill="#111111" stroke="#000000"></path><path d="M450 709.9L450 718.3L453.4 640.7Z" fill="#313131" stroke="#000000"></path><path d="M311.5 122.8L254.3 105.5L246.7 144.1Z" fill="#171717" stroke="#000000"></path><path d="M215.3 112.8L189.1 102.5L207.7 113.5Z" fill="#313131" stroke="#000000"></path><path d="M79.2 784.2L119.8 751.9L100.8 746.5Z" fill="#111111" stroke="#000000"></path><path d="M133.8 756.2L140.5 792.2L198.7 735.9Z" fill="#1c1c1c" stroke="#000000"></path><path d="M389.8 134.5L376.2 134.1L366.2 162.5Z" fill="#000000" stroke="#000000"></path><path d="M311.5 122.8L299.5 90.2L254.3 105.5Z" fill="#000000" stroke="#000000"></path><path d="M188.1 65.2L189.1 102.5L215.3 112.8Z" fill="#363636" stroke="#000000"></path><path d="M207.7 113.5L189.1 102.5L211.1 122.8Z" fill="#090909" stroke="#000000"></path><path d="M140.5 792.2L199.7 803.2L198.7 735.9Z" fill="#363636" stroke="#000000"></path><path d="M94.2 140.5L26.6 158.5L67.6 196.7Z" fill="#313131" stroke="#000000"></path><path d="M72.6 98.2L26.6 158.5L94.2 140.5Z" fill="#111111" stroke="#000000"></path><path d="M395.4 778.2L428.4 744.9L381.2 722.3Z" fill="#000000" stroke="#000000"></path><path d="M443.4 722.3L450 790.5L450 718.3Z" fill="#090909" stroke="#000000"></path><path d="M395.4 778.2L381.2 722.3L345.8 758.9Z" fill="#2c2c2c" stroke="#000000"></path><path d="M280.3 803.8L328.2 761.9L266.9 785.5Z" fill="#000000" stroke="#000000"></path><path d="M199.7 803.2L230.7 807.8L231.3 770.2Z" fill="#111111" stroke="#000000"></path><path d="M230.7 807.8L280.3 803.8L266.9 785.5Z" fill="#090909" stroke="#000000"></path><path d="M410.4 134.5L389.8 134.5L366.2 162.5Z" fill="#3c3c3c" stroke="#000000"></path><path d="M362.2 99.8L311.5 122.8L330.5 134.5Z" fill="#000000" stroke="#000000"></path><path d="M189.1 102.5L138.5 104.8L125.8 161.5Z" fill="#2c2c2c" stroke="#000000"></path><path d="M-4.4 777.2L0 731.5L0 691.9Z" fill="#111111" stroke="#000000"></path><path d="M0 691.9L0 731.5L7.6 692.9Z" fill="#3c3c3c" stroke="#000000"></path><path d="M58.2 738.5L79.2 784.2L100.8 746.5Z" fill="#262626" stroke="#000000"></path><path d="M450 225.3L450 167.7L436.4 188.7Z" fill="#000000" stroke="#000000"></path><path d="M436.4 188.7L410.4 134.5L366.2 162.5Z" fill="#2c2c2c" stroke="#000000"></path><path d="M454.4 297.9L450 167.7L450 225.3Z" fill="#3c3c3c" stroke="#000000"></path><path d="M454.4 297.9L450 167.1L450 167.7Z" fill="#111111" stroke="#000000"></path><path d="M450 167.7L450 167.1L436.4 188.7Z" fill="#1c1c1c" stroke="#000000"></path><path d="M51.6 787.5L79.2 784.2L58.2 738.5Z" fill="#2c2c2c" stroke="#000000"></path><path d="M140.5 792.2L197.1 822.2L199.7 803.2Z" fill="#363636" stroke="#000000"></path><path d="M450 167.1L410.4 134.5L436.4 188.7Z" fill="#2c2c2c" stroke="#000000"></path><path d="M362.2 99.8L330.5 134.5L376.2 134.1Z" fill="#000000" stroke="#000000"></path><path d="M393.8 780.2L345.8 758.9L368.2 816.2Z" fill="#2c2c2c" stroke="#000000"></path><path d="M343.2 824.8L345.8 758.9L328.2 761.9Z" fill="#171717" stroke="#000000"></path><path d="M395.4 778.2L412.8 783.5L428.4 744.9Z" fill="#1c1c1c" stroke="#000000"></path><path d="M79.2 784.2L106.5 800.5L119.8 751.9Z" fill="#313131" stroke="#000000"></path><path d="M199.7 803.2L197.1 822.2L230.7 807.8Z" fill="#090909" stroke="#000000"></path><path d="M362.2 99.8L376.2 134.1L364.2 100.2Z" fill="#2c2c2c" stroke="#000000"></path><path d="M254.3 105.5L239.7 52.2L215.3 112.8Z" fill="#171717" stroke="#000000"></path><path d="M146.5 68.2L111.8 93.8L138.5 104.8Z" fill="#111111" stroke="#000000"></path><path d="M0 157.1L-0.4 159.1L26.6 158.5Z" fill="#171717" stroke="#000000"></path><path d="M26.6 158.5L-0.4 159.1L0 217.7Z" fill="#313131" stroke="#000000"></path><path d="M0 217.7L-0.4 159.1L-3.4 256.9Z" fill="#111111" stroke="#000000"></path><path d="M192.1 845.4L197.1 822.2L168.5 848.8Z" fill="#000000" stroke="#000000"></path><path d="M230.7 807.8L279.9 825.2L280.3 803.8Z" fill="#2c2c2c" stroke="#000000"></path><path d="M280.3 803.8L316.5 821.2L328.2 761.9Z" fill="#171717" stroke="#000000"></path><path d="M0 146.5L0 157.1L26.6 158.5Z" fill="#262626" stroke="#000000"></path><path d="M286.9 80.8L262.9 78.2L254.3 105.5Z" fill="#262626" stroke="#000000"></path><path d="M340.5 73.6L286.9 80.8L299.5 90.2Z" fill="#2c2c2c" stroke="#000000"></path><path d="M299.5 90.2L286.9 80.8L254.3 105.5Z" fill="#000000" stroke="#000000"></path><path d="M146.5 68.2L138.5 104.8L189.1 102.5Z" fill="#1c1c1c" stroke="#000000"></path><path d="M138.5 104.8L111.8 93.8L104.5 138.5Z" fill="#1c1c1c" stroke="#000000"></path><path d="M230.7 871.4L279.9 825.2L230.7 807.8Z" fill="#262626" stroke="#000000"></path><path d="M364.2 100.2L376.2 134.1L381.4 96.8Z" fill="#313131" stroke="#000000"></path><path d="M381.4 96.8L376.2 134.1L389.8 134.5Z" fill="#1c1c1c" stroke="#000000"></path><path d="M362.2 99.8L340.5 73.6L311.5 122.8Z" fill="#313131" stroke="#000000"></path><path d="M79.2 784.2L72.2 798.8L106.5 800.5Z" fill="#090909" stroke="#000000"></path><path d="M106.5 800.5L103.8 823.8L140.5 792.2Z" fill="#262626" stroke="#000000"></path><path d="M-4.4 777.2L51.6 787.5L58.2 738.5Z" fill="#171717" stroke="#000000"></path><path d="M51.6 787.5L72.2 798.8L79.2 784.2Z" fill="#2c2c2c" stroke="#000000"></path><path d="M315.9 822.8L316.5 821.2L280.3 803.8Z" fill="#313131" stroke="#000000"></path><path d="M410.4 794.5L412.8 783.5L393.8 780.2Z" fill="#111111" stroke="#000000"></path><path d="M393.8 780.2L412.8 783.5L395.4 778.2Z" fill="#090909" stroke="#000000"></path><path d="M428.4 744.9L450 790.5L443.4 722.3Z" fill="#262626" stroke="#000000"></path><path d="M0 117.8L0 146.5L26.6 158.5Z" fill="#1c1c1c" stroke="#000000"></path><path d="M0 157.1L0 146.5L-0.4 159.1Z" fill="#000000" stroke="#000000"></path><path d="M-0.4 159.1L0 117.8L-3.4 256.9Z" fill="#000000" stroke="#000000"></path><path d="M279.9 825.2L315.9 822.8L280.3 803.8Z" fill="#3c3c3c" stroke="#000000"></path><path d="M368.2 816.2L410.4 794.5L393.8 780.2Z" fill="#262626" stroke="#000000"></path><path d="M450 113.5L416.8 119.8L410.4 134.5Z" fill="#000000" stroke="#000000"></path><path d="M410.4 134.5L416.8 119.8L389.8 134.5Z" fill="#212121" stroke="#000000"></path><path d="M51.6 787.5L68.6 801.8L72.2 798.8Z" fill="#1c1c1c" stroke="#000000"></path><path d="M72.2 798.8L103.8 823.8L106.5 800.5Z" fill="#3c3c3c" stroke="#000000"></path><path d="M111.8 93.8L72.6 98.2L94.2 140.5Z" fill="#1c1c1c" stroke="#000000"></path><path d="M416.8 119.8L381.4 96.8L389.8 134.5Z" fill="#212121" stroke="#000000"></path><path d="M364.2 100.2L381.4 96.8L362.2 99.8Z" fill="#212121" stroke="#000000"></path><path d="M343.2 824.8L328.2 761.9L316.5 821.2Z" fill="#313131" stroke="#000000"></path><path d="M412.8 783.5L450 790.5L428.4 744.9Z" fill="#111111" stroke="#000000"></path><path d="M208.3 53.2L215.3 112.8L239.7 52.2Z" fill="#212121" stroke="#000000"></path><path d="M208.3 53.2L188.1 65.2L215.3 112.8Z" fill="#262626" stroke="#000000"></path><path d="M64.8 55.6L39.2 70.8L72.6 98.2Z" fill="#2c2c2c" stroke="#000000"></path><path d="M315.9 822.8L343.2 824.8L316.5 821.2Z" fill="#262626" stroke="#000000"></path><path d="M312.2 835.4L343.2 824.8L315.9 822.8Z" fill="#171717" stroke="#000000"></path><path d="M343.2 824.8L368.2 816.2L345.8 758.9Z" fill="#3c3c3c" stroke="#000000"></path><path d="M68.6 801.8L103.8 823.8L72.2 798.8Z" fill="#212121" stroke="#000000"></path><path d="M301.5 839.8L315.9 822.8L279.9 825.2Z" fill="#090909" stroke="#000000"></path><path d="M188.1 65.2L146.5 68.2L189.1 102.5Z" fill="#212121" stroke="#000000"></path><path d="M230.7 871.4L230.7 807.8L197.1 822.2Z" fill="#111111" stroke="#000000"></path><path d="M301.5 839.8L312.2 835.4L315.9 822.8Z" fill="#262626" stroke="#000000"></path><path d="M168.5 848.8L197.1 822.2L140.5 792.2Z" fill="#313131" stroke="#000000"></path><path d="M302.5 876.4L301.5 839.8L279.9 825.2Z" fill="#171717" stroke="#000000"></path><path d="M312.2 835.4L346.8 832.4L343.2 824.8Z" fill="#3c3c3c" stroke="#000000"></path><path d="M343.2 824.8L346.8 832.4L368.2 816.2Z" fill="#313131" stroke="#000000"></path><path d="M381.4 96.8L340.5 73.6L362.2 99.8Z" fill="#171717" stroke="#000000"></path><path d="M239.7 52.2L254.3 105.5L262.9 78.2Z" fill="#171717" stroke="#000000"></path><path d="M302.5 876.4L346.8 832.4L312.2 835.4Z" fill="#313131" stroke="#000000"></path><path d="M432.4 813.8L450 790.5L410.4 794.5Z" fill="#1c1c1c" stroke="#000000"></path><path d="M-5.4 419.8L-4.4 777.2L0 587.8Z" fill="#313131" stroke="#000000"></path><path d="M0 731.5L-4.4 777.2L58.2 738.5Z" fill="#171717" stroke="#000000"></path><path d="M51.6 787.5L41.2 831.4L68.6 801.8Z" fill="#171717" stroke="#000000"></path><path d="M101.8 900L136.1 860.8L85.8 898.4Z" fill="#2c2c2c" stroke="#000000"></path><path d="M239.7 52.2L262.9 78.2L300.9 24.6Z" fill="#363636" stroke="#000000"></path><path d="M166.5 15.6L129.8 31.2L146.5 68.2Z" fill="#111111" stroke="#000000"></path><path d="M300.9 24.6L262.9 78.2L286.9 80.8Z" fill="#090909" stroke="#000000"></path><path d="M136.1 860.8L168.5 848.8L140.5 792.2Z" fill="#111111" stroke="#000000"></path><path d="M192.1 845.4L230.7 871.4L197.1 822.2Z" fill="#090909" stroke="#000000"></path><path d="M20.6 97.8L0 117.8L26.6 158.5Z" fill="#212121" stroke="#000000"></path><path d="M0 146.5L0 117.8L-0.4 159.1Z" fill="#1c1c1c" stroke="#000000"></path><path d="M20.6 97.8L26.6 158.5L72.6 98.2Z" fill="#111111" stroke="#000000"></path><path d="M432.4 813.8L410.4 794.5L391.8 854.8Z" fill="#000000" stroke="#000000"></path><path d="M410.4 794.5L450 790.5L412.8 783.5Z" fill="#111111" stroke="#000000"></path><path d="M450 718.3L450 790.5L453.4 640.7Z" fill="#171717" stroke="#000000"></path><path d="M380.8 20.6L352.2 11.6L340.5 73.6Z" fill="#363636" stroke="#000000"></path><path d="M416.8 119.8L416.8 81.2L381.4 96.8Z" fill="#262626" stroke="#000000"></path><path d="M450 167.1L450 113.5L410.4 134.5Z" fill="#212121" stroke="#000000"></path><path d="M451.4 49.2L450 113.5L450 167.1Z" fill="#111111" stroke="#000000"></path><path d="M72.6 98.2L111.8 93.8L64.8 55.6Z" fill="#262626" stroke="#000000"></path><path d="M39.2 70.8L20.6 97.8L72.6 98.2Z" fill="#313131" stroke="#000000"></path><path d="M391.8 854.8L410.4 794.5L368.2 816.2Z" fill="#090909" stroke="#000000"></path><path d="M450 113.5L416.8 81.2L416.8 119.8Z" fill="#262626" stroke="#000000"></path><path d="M286.9 0L223.3 24.6L239.7 52.2Z" fill="#1c1c1c" stroke="#000000"></path><path d="M103.8 823.8L136.1 860.8L140.5 792.2Z" fill="#3c3c3c" stroke="#000000"></path><path d="M228.3 873.4L230.7 871.4L192.1 845.4Z" fill="#363636" stroke="#000000"></path><path d="M41.2 831.4L103.8 823.8L68.6 801.8Z" fill="#111111" stroke="#000000"></path><path d="M228.3 873.4L195.7 900L219.3 900Z" fill="#171717" stroke="#000000"></path><path d="M301.5 839.8L302.5 876.4L312.2 835.4Z" fill="#090909" stroke="#000000"></path><path d="M346.8 832.4L391.8 854.8L368.2 816.2Z" fill="#1c1c1c" stroke="#000000"></path><path d="M162.5 877.4L192.1 845.4L168.5 848.8Z" fill="#1c1c1c" stroke="#000000"></path><path d="M230.7 871.4L302.5 876.4L279.9 825.2Z" fill="#111111" stroke="#000000"></path><path d="M-4.4 777.2L41.2 831.4L51.6 787.5Z" fill="#2c2c2c" stroke="#000000"></path><path d="M64.8 55.6L111.8 93.8L104.2 34.2Z" fill="#2c2c2c" stroke="#000000"></path><path d="M20.6 97.8L0 34.6L0 117.8Z" fill="#363636" stroke="#000000"></path><path d="M239.7 52.2L223.3 24.6L208.3 53.2Z" fill="#3c3c3c" stroke="#000000"></path><path d="M166.5 15.6L146.5 68.2L188.1 65.2Z" fill="#1c1c1c" stroke="#000000"></path><path d="M300.9 24.6L286.9 80.8L340.5 73.6Z" fill="#1c1c1c" stroke="#000000"></path><path d="M104.2 34.2L111.8 93.8L146.5 68.2Z" fill="#262626" stroke="#000000"></path><path d="M157.5 900L162.5 877.4L157.1 900Z" fill="#000000" stroke="#000000"></path><path d="M136.1 860.8L162.5 877.4L168.5 848.8Z" fill="#3c3c3c" stroke="#000000"></path><path d="M219.3 900L230.7 871.4L228.3 873.4Z" fill="#2c2c2c" stroke="#000000"></path><path d="M300.9 900L302.5 876.4L230.7 871.4Z" fill="#090909" stroke="#000000"></path><path d="M166.5 15.6L188.1 65.2L208.3 53.2Z" fill="#2c2c2c" stroke="#000000"></path><path d="M352.2 11.6L300.9 24.6L340.5 73.6Z" fill="#090909" stroke="#000000"></path><path d="M450 113.5L450 79.8L416.8 81.2Z" fill="#2c2c2c" stroke="#000000"></path><path d="M380.8 20.6L340.5 73.6L381.4 96.8Z" fill="#262626" stroke="#000000"></path><path d="M451.4 49.2L450 79.8L450 113.5Z" fill="#2c2c2c" stroke="#000000"></path><path d="M337.5 900L391.8 854.8L346.8 832.4Z" fill="#212121" stroke="#000000"></path><path d="M129.8 31.2L104.2 34.2L146.5 68.2Z" fill="#262626" stroke="#000000"></path><path d="M203.7 0L166.5 15.6L208.3 53.2Z" fill="#363636" stroke="#000000"></path><path d="M129.8 31.2L104.2 6.6L104.2 34.2Z" fill="#111111" stroke="#000000"></path><path d="M203.7 0L208.3 53.2L223.3 24.6Z" fill="#313131" stroke="#000000"></path><path d="M-4.4 777.2L0 833.2L41.2 831.4Z" fill="#000000" stroke="#000000"></path><path d="M41.2 831.4L57.6 866.4L103.8 823.8Z" fill="#262626" stroke="#000000"></path><path d="M391.8 854.8L450 835.2L432.4 813.8Z" fill="#2c2c2c" stroke="#000000"></path><path d="M432.4 813.8L450 835.2L450 790.5Z" fill="#3c3c3c" stroke="#000000"></path><path d="M450 790.5L450 835.2L453.4 640.7Z" fill="#262626" stroke="#000000"></path><path d="M286.9 0L224.7 6.6L223.3 24.6Z" fill="#171717" stroke="#000000"></path><path d="M-4.4 777.2L0 835.8L0 833.2Z" fill="#2c2c2c" stroke="#000000"></path><path d="M0 833.2L0 835.8L41.2 831.4Z" fill="#1c1c1c" stroke="#000000"></path><path d="M0 835.8L57.6 866.4L41.2 831.4Z" fill="#3c3c3c" stroke="#000000"></path><path d="M195.7 900L192.1 845.4L162.5 877.4Z" fill="#090909" stroke="#000000"></path><path d="M195.7 900L228.3 873.4L192.1 845.4Z" fill="#363636" stroke="#000000"></path><path d="M302.5 876.4L337.5 900L346.8 832.4Z" fill="#171717" stroke="#000000"></path><path d="M451.4 49.2L450 63.6L450 79.8Z" fill="#3c3c3c" stroke="#000000"></path><path d="M450 79.8L450 63.6L416.8 81.2Z" fill="#262626" stroke="#000000"></path><path d="M157.5 900L195.7 900L162.5 877.4Z" fill="#2c2c2c" stroke="#000000"></path><path d="M451.4 49.2L450 61.2L450 63.6Z" fill="#090909" stroke="#000000"></path><path d="M450 63.6L434.4 41.6L416.8 81.2Z" fill="#313131" stroke="#000000"></path><path d="M286.9 0L205.3 0L224.7 6.6Z" fill="#363636" stroke="#000000"></path><path d="M224.7 6.6L205.3 0L223.3 24.6Z" fill="#262626" stroke="#000000"></path><path d="M166.5 15.6L133.5 0L129.8 31.2Z" fill="#363636" stroke="#000000"></path><path d="M197.1 -2.4L205.3 0L286.9 0Z" fill="#090909" stroke="#000000"></path><path d="M205.3 0L203.7 0L223.3 24.6Z" fill="#3c3c3c" stroke="#000000"></path><path d="M157.1 900L162.5 877.4L136.1 860.8Z" fill="#3c3c3c" stroke="#000000"></path><path d="M101.8 900L157.1 900L136.1 860.8Z" fill="#171717" stroke="#000000"></path><path d="M219.3 900L300.9 900L230.7 871.4Z" fill="#1c1c1c" stroke="#000000"></path><path d="M391.8 854.8L450 857.8L450 835.2Z" fill="#3c3c3c" stroke="#000000"></path><path d="M286.9 0L239.7 52.2L300.9 24.6Z" fill="#111111" stroke="#000000"></path><path d="M205.3 0L197.1 -2.4L203.7 0Z" fill="#1c1c1c" stroke="#000000"></path><path d="M203.7 0L197.1 -2.4L166.5 15.6Z" fill="#1c1c1c" stroke="#000000"></path><path d="M219.3 900L303.9 901.4L300.9 900Z" fill="#363636" stroke="#000000"></path><path d="M300.9 900L303.9 901.4L302.5 876.4Z" fill="#3c3c3c" stroke="#000000"></path><path d="M195.7 900L303.9 901.4L219.3 900Z" fill="#171717" stroke="#000000"></path><path d="M157.5 900L303.9 901.4L195.7 900Z" fill="#111111" stroke="#000000"></path><path d="M157.1 900L303.9 901.4L157.5 900Z" fill="#000000" stroke="#000000"></path><path d="M342.5 0L286.9 0L300.9 24.6Z" fill="#2c2c2c" stroke="#000000"></path><path d="M197.1 -2.4L163.1 0L166.5 15.6Z" fill="#111111" stroke="#000000"></path><path d="M104.2 34.2L90.2 0L64.8 55.6Z" fill="#111111" stroke="#000000"></path><path d="M380.8 20.6L381.4 96.8L416.8 81.2Z" fill="#111111" stroke="#000000"></path><path d="M434.4 41.6L380.8 20.6L416.8 81.2Z" fill="#000000" stroke="#000000"></path><path d="M381.8 900L403.4 875.4L391.8 854.8Z" fill="#000000" stroke="#000000"></path><path d="M303.9 901.4L326.2 900L302.5 876.4Z" fill="#262626" stroke="#000000"></path><path d="M450 61.2L434.4 41.6L450 63.6Z" fill="#111111" stroke="#000000"></path><path d="M303.9 901.4L337.5 900L326.2 900Z" fill="#000000" stroke="#000000"></path><path d="M326.2 900L337.5 900L302.5 876.4Z" fill="#262626" stroke="#000000"></path><path d="M454.4 297.9L451.4 49.2L450 167.1Z" fill="#363636" stroke="#000000"></path><path d="M450 61.2L451.4 49.2L434.4 41.6Z" fill="#111111" stroke="#000000"></path><path d="M197.1 -2.4L133.5 0L163.1 0Z" fill="#1c1c1c" stroke="#000000"></path><path d="M163.1 0L133.5 0L166.5 15.6Z" fill="#313131" stroke="#000000"></path><path d="M64.8 55.6L0 34.6L39.2 70.8Z" fill="#111111" stroke="#000000"></path><path d="M133.5 0L104.2 6.6L129.8 31.2Z" fill="#2c2c2c" stroke="#000000"></path><path d="M403.4 875.4L450 857.8L391.8 854.8Z" fill="#2c2c2c" stroke="#000000"></path><path d="M450 835.2L450 857.8L453.4 640.7Z" fill="#3c3c3c" stroke="#000000"></path><path d="M85.8 898.4L103.8 823.8L57.6 866.4Z" fill="#212121" stroke="#000000"></path><path d="M85.8 898.4L136.1 860.8L103.8 823.8Z" fill="#313131" stroke="#000000"></path><path d="M157.1 900L101.8 900L303.9 901.4Z" fill="#1c1c1c" stroke="#000000"></path><path d="M352.2 11.6L380.8 20.6L363.2 0Z" fill="#000000" stroke="#000000"></path><path d="M355.8 0L352.2 11.6L363.2 0Z" fill="#363636" stroke="#000000"></path><path d="M355.8 0L342.5 0L352.2 11.6Z" fill="#2c2c2c" stroke="#000000"></path><path d="M352.2 11.6L342.5 0L300.9 24.6Z" fill="#262626" stroke="#000000"></path><path d="M286.9 0L342.5 0L197.1 -2.4Z" fill="#3c3c3c" stroke="#000000"></path><path d="M47.2 900L85.8 898.4L57.6 866.4Z" fill="#1c1c1c" stroke="#000000"></path><path d="M133.5 0L99.8 0L104.2 6.6Z" fill="#262626" stroke="#000000"></path><path d="M104.2 6.6L90.2 0L104.2 34.2Z" fill="#313131" stroke="#000000"></path><path d="M5.6 -5.4L99.8 0L133.5 0Z" fill="#363636" stroke="#000000"></path><path d="M363.2 0L380.8 20.6L412.4 0Z" fill="#090909" stroke="#000000"></path><path d="M342.5 0L355.8 0L197.1 -2.4Z" fill="#313131" stroke="#000000"></path><path d="M5.6 -5.4L90.2 0L99.8 0Z" fill="#212121" stroke="#000000"></path><path d="M99.8 0L90.2 0L104.2 6.6Z" fill="#111111" stroke="#000000"></path><path d="M39.2 70.8L0 34.6L20.6 97.8Z" fill="#090909" stroke="#000000"></path><path d="M412.4 0L380.8 20.6L434.4 41.6Z" fill="#111111" stroke="#000000"></path><path d="M355.8 0L363.2 0L197.1 -2.4Z" fill="#3c3c3c" stroke="#000000"></path><path d="M337.5 900L381.8 900L391.8 854.8Z" fill="#1c1c1c" stroke="#000000"></path><path d="M403.4 875.4L450 887.4L450 857.8Z" fill="#212121" stroke="#000000"></path><path d="M303.9 901.4L381.8 900L337.5 900Z" fill="#262626" stroke="#000000"></path><path d="M0 34.2L0 34.6L64.8 55.6Z" fill="#363636" stroke="#000000"></path><path d="M0 117.8L0 34.6L-3.4 256.9Z" fill="#212121" stroke="#000000"></path><path d="M24.6 0L0 34.2L64.8 55.6Z" fill="#3c3c3c" stroke="#000000"></path><path d="M0 34.6L0 34.2L-3.4 256.9Z" fill="#3c3c3c" stroke="#000000"></path><path d="M0 887.4L47.2 900L57.6 866.4Z" fill="#212121" stroke="#000000"></path><path d="M85.8 898.4L47.2 900L101.8 900Z" fill="#262626" stroke="#000000"></path><path d="M101.8 900L47.2 900L303.9 901.4Z" fill="#111111" stroke="#000000"></path><path d="M450 0L412.4 0L434.4 41.6Z" fill="#000000" stroke="#000000"></path><path d="M363.2 0L412.4 0L197.1 -2.4Z" fill="#212121" stroke="#000000"></path><path d="M439.4 900L450 887.4L403.4 875.4Z" fill="#1c1c1c" stroke="#000000"></path><path d="M450 857.8L450 887.4L453.4 640.7Z" fill="#090909" stroke="#000000"></path><path d="M-4.4 777.2L0 887.4L0 835.8Z" fill="#090909" stroke="#000000"></path><path d="M0 835.8L0 887.4L57.6 866.4Z" fill="#262626" stroke="#000000"></path><path d="M5.6 -5.4L24.6 0L90.2 0Z" fill="#313131" stroke="#000000"></path><path d="M90.2 0L24.6 0L64.8 55.6Z" fill="#111111" stroke="#000000"></path><path d="M303.9 901.4L439.4 900L381.8 900Z" fill="#171717" stroke="#000000"></path><path d="M381.8 900L439.4 900L403.4 875.4Z" fill="#262626" stroke="#000000"></path><path d="M303.9 901.4L450 900L439.4 900Z" fill="#3c3c3c" stroke="#000000"></path><path d="M439.4 900L450 900L450 887.4Z" fill="#111111" stroke="#000000"></path><path d="M450 887.4L450 900L453.4 640.7Z" fill="#171717" stroke="#000000"></path><path d="M0 887.4L2.6 900L47.2 900Z" fill="#000000" stroke="#000000"></path><path d="M47.2 900L2.6 900L303.9 901.4Z" fill="#313131" stroke="#000000"></path><path d="M-4.4 777.2L0 900L0 887.4Z" fill="#262626" stroke="#000000"></path><path d="M0 887.4L0 900L2.6 900Z" fill="#313131" stroke="#000000"></path><path d="M2.6 900L0 900L303.9 901.4Z" fill="#363636" stroke="#000000"></path><path d="M451.4 49.2L450 0L434.4 41.6Z" fill="#090909" stroke="#000000"></path><path d="M412.4 0L450 0L197.1 -2.4Z" fill="#262626" stroke="#000000"></path><path d="M5.6 -5.4L0 0L24.6 0Z" fill="#262626" stroke="#000000"></path><path d="M24.6 0L0 0L0 34.2Z" fill="#1c1c1c" stroke="#000000"></path><path d="M0 34.2L0 0L-3.4 256.9Z" fill="#171717" stroke="#000000"></path><path d="M197.1 -2.4L5.6 -5.4L133.5 0Z" fill="#262626" stroke="#000000"></path><path d="M450 0L5.6 -5.4L197.1 -2.4Z" fill="#000000" stroke="#000000"></path></g></svg>